<svg width="24" height="22" viewBox="0 0 24 22" fill="none" xmlns="http://www.w3.org/2000/svg">
<path d="M23.6 0.200001C23.4 7.59959e-07 23 0 22.7 0L17 1.7V21.8L23.3 20C23.7 19.9 24 19.5 24 19V1C24 0.7 23.9 0.400001 23.6 0.200001Z" fill="#D6B1FF"/>
<path d="M15 1.7002L9 0.200195V20.3002L15 21.8002V1.7002Z" fill="#2EC5CE"/>
<path d="M7 0.200195L0.700001 2.00019C0.300001 2.20019 0 2.60019 0 3.00019V21.0002C0 21.3002 0.0999996 21.6002 0.4 21.8002C0.6 21.9002 0.8 22.0002 1 22.0002H1.3L7 20.3002V0.200195Z" fill="#8C30F5"/>
</svg>
