<svg width="94" height="30" viewBox="0 0 94 30" fill="none" xmlns="http://www.w3.org/2000/svg">
<g clip-path="url(#clip0_580_1792)">
<path d="M11.5757 0.00366211H12.4117C15.3137 0.0653479 18.1684 1.20653 20.2187 3.22674C19.4617 3.98239 18.6888 4.7072 17.9476 5.46285C16.7962 4.44504 15.4083 3.65854 13.8942 3.38096C11.6546 2.91831 9.24152 3.33469 7.36468 4.58383C5.31434 5.89465 3.92642 8.11534 3.62676 10.4902C3.29555 12.8343 3.97374 15.3017 5.53514 17.1215C7.03347 18.8949 9.32038 20.0053 11.6862 20.0824C13.8942 20.2057 16.1969 19.5426 17.8056 18.0313C19.0674 16.9672 19.6509 15.348 19.8402 13.775C17.2221 13.775 14.6039 13.7904 11.9858 13.775V10.5982H23.0103C23.5781 14.0063 22.758 17.8463 20.1083 20.2829C18.3419 22.0101 15.8972 23.0279 13.4053 23.2283C10.9922 23.4597 8.50025 23.0124 6.35528 21.8713C3.78447 20.5296 1.73414 18.2626 0.724742 15.5947C-0.221567 13.1427 -0.237339 10.3669 0.645883 7.89944C1.45025 5.64791 2.99588 3.65854 4.98313 2.27061C6.89152 0.898106 9.20998 0.142455 11.5757 0.00366211Z" fill="#3780FF"/>
<path d="M74.821 0.803955H78.1961V22.8258C77.0763 22.8258 75.9408 22.8412 74.821 22.8103C74.8368 15.4852 74.821 8.14456 74.821 0.803955Z" fill="#38B137"/>
<path d="M30.5192 8.43856C32.6011 8.05302 34.8564 8.48482 36.5756 9.70311C38.137 10.7826 39.2252 12.479 39.5565 14.3295C39.9823 16.4731 39.4461 18.8172 38.0266 20.5135C36.4967 22.4104 33.989 23.4282 31.5443 23.274C29.3047 23.1506 27.1282 22.0557 25.8034 20.2668C24.3051 18.2928 23.9423 15.5787 24.7624 13.2655C25.5826 10.7826 27.901 8.88578 30.5192 8.43856ZM30.9923 11.3686C30.1407 11.5845 29.3521 12.0626 28.7843 12.7411C27.2544 14.53 27.349 17.4447 29.0366 19.1102C29.9987 20.0663 31.4497 20.5135 32.7903 20.2514C34.0363 20.0355 35.1246 19.2181 35.7239 18.1386C36.7648 16.3035 36.4652 13.7744 34.8722 12.3402C33.847 11.4149 32.3487 11.0294 30.9923 11.3686Z" fill="#FA3913"/>
<path d="M47.236 8.43774C49.6175 7.99052 52.2199 8.63822 54.0021 10.2729C56.9041 12.8174 57.2195 17.5826 54.7434 20.5127C53.2451 22.3633 50.8162 23.3811 48.4189 23.2732C46.132 23.2115 43.8766 22.1011 42.5202 20.266C40.9904 18.2458 40.6592 15.4699 41.5266 13.1104C42.3941 10.7047 44.6652 8.86954 47.236 8.43774ZM47.7092 11.3678C46.8575 11.5837 46.0689 12.0618 45.5011 12.7249C43.987 14.4829 44.0501 17.3513 45.6746 19.0323C46.6367 20.0347 48.135 20.5281 49.5229 20.2506C50.7531 20.0192 51.8571 19.2173 52.4565 18.1378C53.4816 16.2872 53.182 13.7581 51.5732 12.3239C50.5481 11.3987 49.0498 11.0285 47.7092 11.3678Z" fill="#FCBD06"/>
<path d="M61.4167 9.33242C63.2304 8.22207 65.6435 7.91365 67.5992 8.86978C68.2143 9.13194 68.719 9.57916 69.2079 10.0264C69.2237 9.61001 69.2079 9.17821 69.2237 8.7464C70.2804 8.76183 71.3371 8.7464 72.4096 8.76183V22.3636C72.3938 24.4146 71.8576 26.589 70.3435 28.0849C68.6875 29.735 66.1482 30.2439 63.8613 29.9046C61.4167 29.55 59.2875 27.8073 58.3412 25.6021C59.2875 25.1548 60.2811 24.8001 61.259 24.3838C61.811 25.6483 62.9308 26.7278 64.3344 26.9746C65.7381 27.2213 67.3626 26.882 68.2774 25.7409C69.2552 24.5688 69.2552 22.965 69.2079 21.5308C68.4824 22.2248 67.6465 22.8416 66.6371 23.0729C64.4449 23.6744 62.0318 22.9342 60.3442 21.4845C58.6408 20.0349 57.6315 17.7988 57.7261 15.5781C57.7734 13.0644 59.2244 10.6432 61.4167 9.33242ZM64.6814 11.3064C63.7194 11.4606 62.8204 11.9849 62.2053 12.7097C60.7227 14.4369 60.7227 17.1974 62.221 18.8937C63.0727 19.8961 64.4449 20.4513 65.7697 20.3125C67.0156 20.1891 68.167 19.4181 68.7821 18.354C69.823 16.5497 69.6495 14.0977 68.2458 12.5247C67.3784 11.5531 65.9905 11.075 64.6814 11.3064Z" fill="#3780FF"/>
<path d="M82.2491 10.1193C84.1417 8.39206 87.0595 7.80605 89.4884 8.71591C91.791 9.56409 93.2578 11.7077 93.9991 13.9129C90.5766 15.3009 87.1699 16.6734 83.7474 18.0613C84.2205 18.9403 84.9461 19.7422 85.9239 20.0661C87.2961 20.5441 88.9363 20.3745 90.0877 19.4801C90.5451 19.1408 90.9078 18.6936 91.2548 18.2618C92.1222 18.8324 92.9897 19.3875 93.8571 19.9581C92.6269 21.7624 90.5608 23.027 88.337 23.2275C85.8766 23.5205 83.2585 22.5952 81.6655 20.7138C79.0474 17.7529 79.2997 12.7872 82.2491 10.1193ZM83.9367 12.9722C83.4004 13.7279 83.1796 14.6532 83.1954 15.563C85.4823 14.6377 87.7692 13.7125 90.0561 12.7717C89.6776 11.9081 88.7628 11.3838 87.8323 11.245C86.334 10.9829 84.7726 11.7694 83.9367 12.9722Z" fill="#FA3913"/>
</g>
<defs>
<clipPath id="clip0_580_1792">
<rect width="94" height="30" fill="white"/>
</clipPath>
</defs>
</svg>
