<svg width="53" height="48" viewBox="0 0 53 48" fill="none" xmlns="http://www.w3.org/2000/svg">
<path d="M49.1174 30.9355L50.789 30.9398C51.272 30.9409 52.0015 30.7155 52.4806 30.3038C52.1329 29.0483 49.8512 28.7577 48.9039 28.7749L49.1174 30.9355Z" fill="#FFCC00" stroke="#B79300" stroke-width="0.8"/>
<path d="M44.6228 30.9495L44.5527 37.1426L51.0537 36.6435C52.0631 36.4732 52.228 35.9611 52.2539 35.3959L52.504 31.2156C52.504 31.2156 52.5447 30.5605 52.5079 30.3861C52.4387 30.0584 52.1896 29.9761 51.9949 30.1751C51.7515 30.424 51.1369 30.8706 50.6036 30.8663L44.6228 30.9495Z" fill="#FFCC00" stroke="#B79300" stroke-width="0.8"/>
<path d="M3.68287 30.9606L2.01123 30.965C1.52824 30.9661 0.798721 30.7407 0.319649 30.3289C0.667321 29.0734 2.94905 28.7829 3.89639 28.8L3.68287 30.9606Z" fill="#FFCC00" stroke="#B79300" stroke-width="0.8"/>
<path d="M8.17883 30.9751L8.24891 37.1682L1.74785 36.6692C0.738449 36.4988 0.573593 35.9868 0.547646 35.4216L0.297587 31.2412C0.297587 31.2412 0.256877 30.5861 0.293716 30.4117C0.362862 30.084 0.61202 30.0017 0.806648 30.2007C1.05008 30.4497 1.66464 30.8962 2.19797 30.8919L8.17883 30.9751Z" fill="#FFCC00" stroke="#B79300" stroke-width="0.8"/>
<path fill-rule="evenodd" clip-rule="evenodd" d="M26.2299 0.353027C25.1453 0.353027 24.1325 0.935876 23.5843 1.87549C20.4324 8.66249 18.9917 8.44592 11.9644 8.66614C10.8917 8.70189 9.92627 9.28455 9.40204 10.2003C8.86569 11.128 8.85397 12.2695 9.37846 13.1973C13.4878 19.2662 12.8031 20.4019 9.5928 26.4336C9.09225 27.3613 9.11617 28.4909 9.65225 29.4068C10.1886 30.3223 11.1539 30.8934 12.2144 30.9291C19.7734 30.4084 20.2896 31.9412 24.1682 37.9344C24.7403 38.8264 25.6833 39.3496 26.7441 39.3375C27.7929 39.3257 28.8164 38.7667 29.3646 37.8749C32.6472 31.2368 33.8347 31.126 40.722 31.0841C41.8068 31.072 42.8075 30.4895 43.356 29.5618C43.8921 28.6224 43.9041 27.4691 43.3796 26.5295C39.1507 20.4282 40.2139 19.1936 43.3679 12.9358C43.8445 11.9965 43.797 10.8785 43.2604 9.98642C41.0301 11.3678 41.0301 11.3676 43.2604 9.98642C42.7243 9.08255 41.7589 8.52367 40.7101 8.49976C33.1092 8.9992 32.4762 7.94018 28.8757 1.85168C28.3275 0.923901 27.3145 0.353138 26.2299 0.353138V0.353027ZM26.2418 3.40971C30.1301 9.99599 32.3028 12.214 40.6385 11.5566C37.2496 18.2803 35.9588 21.3282 40.6981 28.0157C33.2243 28.0765 30.258 28.9294 26.7441 36.2811V36.2814C22.5962 29.8381 20.6103 27.2137 12.298 27.8734C15.7745 21.3418 16.6696 18.3528 12.0598 11.7231C19.6451 11.485 22.8452 10.9546 26.2418 3.40983V3.40971Z" fill="#FFCC00"/>
<path fill-rule="evenodd" clip-rule="evenodd" d="M26.3286 2.73047C28.8798 9.05641 32.2691 12.4738 40.6374 11.5561C37.2485 18.2798 35.9577 21.3277 40.6971 28.0152C33.2233 28.0761 30.2569 28.929 26.7431 36.2807V36.2809C22.5951 29.8377 20.6093 27.2132 12.297 27.873C15.7734 21.3414 16.6685 18.3523 12.0587 11.7226C19.6441 11.4846 23.2558 10.5777 26.3286 2.73059V2.73047Z" stroke="#B79300" stroke-width="0.8" stroke-linecap="round" stroke-linejoin="round"/>
<path d="M24.1911 30.1177C24.1911 30.1177 24.2122 30.1071 24.2438 30.0966C24.286 30.0755 24.3388 30.0545 24.4126 30.0124C24.5709 29.9387 24.7924 29.8229 25.0667 29.665C25.3516 29.507 25.6786 29.2965 26.0584 29.0438C26.4277 28.7912 26.8391 28.4859 27.2506 28.1174C27.6726 27.7489 28.0945 27.3278 28.506 26.854C28.9069 26.3698 29.2972 25.8223 29.6137 25.2222C29.9302 24.6116 30.1834 23.9484 30.3417 23.2535C30.3628 23.1693 30.3839 23.0746 30.3944 22.9903L30.4366 22.7272C30.4683 22.5482 30.4788 22.3692 30.4999 22.1902L30.5105 22.0534V22.0218C30.5105 22.0112 30.5105 22.0218 30.5105 22.0218V22.0112V21.9902V21.9165L30.521 21.6322C30.5316 21.4427 30.521 21.2638 30.521 21.0743C30.5105 20.3373 30.4366 19.5898 30.3311 18.8634C30.2256 18.137 30.0674 17.4211 29.8986 16.7368C29.5504 15.3682 29.1179 14.1259 28.7065 13.0731C28.295 12.0203 27.8941 11.1571 27.6093 10.5675C27.4616 10.2727 27.3455 10.0411 27.2611 9.8832C27.1767 9.72529 27.1345 9.64107 27.1345 9.64107L27.4194 9.48315C27.4194 9.48315 27.4616 9.56738 27.5565 9.72529C27.6409 9.8832 27.7675 10.1148 27.9152 10.4096C28.2212 10.9992 28.6326 11.8624 29.0757 12.9152C29.5188 13.968 29.983 15.2313 30.3628 16.6105C30.7426 17.9896 31.038 19.5056 31.0907 21.0532C31.0907 21.2427 31.1013 21.4533 31.1013 21.6322V21.9165V21.9902V22.0112V22.0323V22.0639L31.0907 22.2113C31.0802 22.4113 31.0696 22.6008 31.038 22.7903L30.9958 23.0746C30.9747 23.1693 30.9536 23.2641 30.943 23.3588C30.7848 24.1168 30.5316 24.8432 30.194 25.5065C29.8564 26.1592 29.4555 26.7593 29.0335 27.2857C28.6115 27.8121 28.1684 28.2648 27.7359 28.6543C27.3033 29.0438 26.8813 29.3807 26.491 29.6544C26.1006 29.9282 25.7525 30.1493 25.4571 30.3282C25.1617 30.5072 24.9296 30.6335 24.7608 30.7178C24.6764 30.7599 24.6131 30.7914 24.5709 30.8125C24.5287 30.8336 24.497 30.8441 24.497 30.8441L24.4654 30.823C24.2544 30.6862 24.1383 30.4019 24.1911 30.1177H24.1911Z" fill="#FFCC00" stroke="#B79300" stroke-width="0.8" stroke-miterlimit="10" stroke-linejoin="round"/>
<path fill-rule="evenodd" clip-rule="evenodd" d="M26.23 0.352876C25.1455 0.352876 24.1327 0.935703 23.5844 1.87531C20.4326 8.66231 18.9918 8.44572 11.9645 8.66593C10.8918 8.70168 9.92639 9.28434 9.40216 10.2C8.86581 11.1278 8.85406 12.2693 9.37857 13.1971C13.4879 19.266 12.8032 20.4017 9.59293 26.4334C9.09239 27.3611 9.11629 28.4907 9.65237 29.4067C10.1887 30.3221 11.154 30.8932 12.2145 30.9289C19.7735 30.4082 20.2897 31.9411 24.1683 37.9342C24.7404 38.8263 25.7296 39.3494 26.7905 39.3373C27.8392 39.3255 28.8165 38.7665 29.3647 37.8747C32.6473 31.2366 33.8348 31.1258 40.7222 31.0839C41.8069 31.0718 42.8077 30.4892 43.3562 29.5615C43.8922 28.6221 43.9043 27.4689 43.3798 26.5294C39.151 20.4281 40.2141 19.1935 43.3681 12.9357C43.8447 11.9964 43.7972 10.8784 43.2606 9.98632V9.98604C42.7245 9.08217 41.759 8.52328 40.7103 8.49937C33.1094 8.99883 32.4763 7.9398 28.8758 1.85131C28.3276 0.923529 27.3146 0.352783 26.23 0.352783V0.352876Z" stroke="#B79300" stroke-width="0.8"/>
<path d="M24.7392 26.8447V34.0236H26.385H28.0414V26.8447H24.7392Z" fill="#FFCC00" stroke="#B79300" stroke-width="0.8" stroke-miterlimit="10"/>
<path d="M28.028 28.6941L24.7787 29.9048L24.8349 30.1072L28.028 28.9152V28.6941Z" fill="#B79300"/>
<path d="M24.7615 29.0748L28.0003 27.8642V27.6431L24.7615 28.8538V29.0748Z" fill="#B79300"/>
<path d="M22.4716 5.40796C22.4716 5.40796 27.0519 6.4377 27.2501 10.5337L22.4716 5.40796Z" fill="#FFCC00"/>
<path d="M22.4716 5.40796C22.4716 5.40796 27.0519 6.4377 27.2501 10.5337" stroke="#B79300" stroke-width="0.8" stroke-miterlimit="10"/>
<path d="M27.2507 10.5337C27.2507 10.5376 27.2507 10.5416 27.2517 10.5455C27.2411 10.535 24.3399 11.1667 22.4725 5.40796" fill="#B79300"/>
<path d="M27.2507 10.5337C27.2507 10.5376 27.2507 10.5416 27.2517 10.5455C27.2411 10.535 24.3399 11.1667 22.4725 5.40796" stroke="#B79300" stroke-width="0.8" stroke-miterlimit="10"/>
<path d="M22.4716 5.40796C24.2974 7.27138 25.5586 8.9453 27.0185 10.356L27.2506 10.535" stroke="#B79300" stroke-width="0.8" stroke-miterlimit="10"/>
<path d="M25.415 5.31337L26.3961 2.64673V26.3657H24.7398V20.5366V9.16655C24.7398 7.85058 24.9719 6.55566 25.415 5.31337H25.415Z" fill="#FFCC00"/>
<path d="M27.3775 5.31337L26.3964 2.64673V26.3657H28.0527V20.5366V9.16655C28.0527 7.85058 27.8206 6.55566 27.3775 5.31337H27.3775Z" fill="#B79300"/>
<path d="M28.0283 32.8064L24.7392 34.0229V34.2545L28.0283 33.038V32.8064Z" fill="#B79300"/>
<path d="M28.559 34.9806H24.2336C24.0331 34.9806 23.8643 34.8121 23.8643 34.6121V34.012C23.8643 33.812 24.0331 33.6436 24.2336 33.6436H28.559C28.7595 33.6436 28.9283 33.812 28.9283 34.012V34.6121C28.9283 34.8121 28.7595 34.9806 28.559 34.9806Z" fill="#FFCC00" stroke="#B79300" stroke-width="0.8" stroke-miterlimit="10"/>
<path d="M28.0295 31.7534L24.7751 32.9689V33.2005L28.0295 31.985V31.7534Z" fill="#B79300"/>
<path d="M28.0291 30.7307L24.7717 31.9392V32.1708L28.0291 30.9623V30.7307Z" fill="#B79300"/>
<path d="M28.0287 29.7219L24.764 30.9386V31.1597L28.0287 29.943V29.7219Z" fill="#B79300"/>
<path d="M26.3958 25.674V2.69336" stroke="#B79300" stroke-width="0.8" stroke-miterlimit="10" stroke-linecap="round" stroke-linejoin="round"/>
<path d="M31.3893 21.6657C31.3539 21.676 31.3182 21.6859 31.282 21.6956C31.282 21.6956 31.1769 17.6265 34.5645 15.3918" fill="#FFCC00"/>
<path d="M31.3893 21.6657C31.3539 21.676 31.3182 21.686 31.282 21.6956C31.282 21.6956 31.1769 17.6265 34.5645 15.3918" stroke="#B79300" stroke-width="0.8" stroke-miterlimit="10"/>
<path d="M34.563 15.3916C34.5696 15.3873 34.5762 15.383 34.5828 15.3787C34.5861 15.4035 35.2978 20.5284 31.3879 21.6655" fill="#B79300"/>
<path d="M34.563 15.3916C34.5696 15.3873 34.5762 15.383 34.5828 15.3787C34.5861 15.4035 35.2978 20.5284 31.3879 21.6655" stroke="#B79300" stroke-width="0.8" stroke-miterlimit="10"/>
<path d="M30.9325 7.30322C30.9325 7.30322 33.3063 13.3567 29.9831 15.4623L30.9325 7.30322Z" fill="#B79300"/>
<path d="M30.9325 7.30322C30.9325 7.30322 33.3063 13.3567 29.9831 15.4623" stroke="#B79300" stroke-width="0.8" stroke-miterlimit="10"/>
<path d="M29.9835 15.4623C29.9835 15.4623 28.1056 9.95623 30.933 7.30322L29.9835 15.4623Z" fill="#FFCC00"/>
<path d="M29.9835 15.4623C29.9835 15.4623 28.1056 9.95623 30.933 7.30322" stroke="#B79300" stroke-width="0.8" stroke-miterlimit="10"/>
<path d="M35.5282 22.2341C35.475 22.8087 34.8878 26.9448 28.5914 27.8326L35.5282 22.2341Z" fill="#B79300"/>
<path d="M35.5282 22.2341C35.475 22.8087 34.8878 26.9448 28.5914 27.8326" stroke="#B79300" stroke-width="0.8" stroke-miterlimit="10"/>
<path d="M26.3589 2.82788L25.4146 5.31351C24.9715 6.55579 24.7394 7.85072 24.7394 9.16669V20.5367V26.3659H26.3957H28.052V20.5367V9.16669C28.052 7.85072 27.8199 6.55579 27.3768 5.31351L26.3589 2.82788Z" stroke="#B79300" stroke-width="0.8" stroke-miterlimit="10"/>
<path d="M23.0735 16.042C25.7111 18.2489 28.2595 19.9198 30.7644 21.8849" stroke="black" stroke-width="0.8" stroke-miterlimit="10"/>
<path d="M23.0736 16.042C23.0736 16.042 29.0343 16.6526 30.7539 21.7586C30.7539 21.7579 30.7332 21.7599 30.6937 21.7626" fill="#FFCC00"/>
<path d="M23.0736 16.042C23.0736 16.042 29.0343 16.6526 30.7539 21.7586C30.7539 21.7579 30.7332 21.7599 30.6937 21.7626" stroke="#B79300" stroke-width="0.8" stroke-miterlimit="10"/>
<path d="M30.6937 21.7626C30.1007 21.8035 25.2794 22.0139 23.0736 16.042L30.6937 21.7626Z" fill="#B79300"/>
<path d="M30.6937 21.7626C30.1007 21.8035 25.2794 22.0139 23.0736 16.042" stroke="#B79300" stroke-width="0.8" stroke-miterlimit="10"/>
<path d="M23.0736 16.042C25.7112 18.2489 28.2596 19.9198 30.7645 21.8849" stroke="#B79300" stroke-width="0.8" stroke-miterlimit="10"/>
<path d="M34.573 15.3784C33.467 17.6509 32.4402 19.757 31.2814 21.8846" stroke="#B79300" stroke-width="0.8" stroke-miterlimit="10"/>
<path d="M28.5914 27.8321C28.5914 27.8321 33.5245 23.9223 35.5236 22.2788" stroke="#B79300" stroke-width="0.8" stroke-miterlimit="10"/>
<path d="M29.5611 15.567C27.2978 14.1177 25.0462 12.7297 23.1994 10.7664" stroke="black" stroke-width="0.8" stroke-miterlimit="10"/>
<path d="M30.9325 7.30322C30.6776 10.0518 30.3322 12.8908 29.983 15.1991V15.4623" stroke="#B79300" stroke-width="0.8" stroke-miterlimit="10"/>
<path fill-rule="evenodd" clip-rule="evenodd" d="M8.3525 30.95L4.55963 36.8874C10.2235 44.1935 17.1254 47.7912 26.378 47.7261C35.6306 47.7912 42.5328 44.1935 48.1966 36.8874L44.4037 30.95C41.5942 37.1285 34.5378 41.6719 26.378 41.6419C18.2183 41.6718 11.162 37.1284 8.3525 30.95Z" fill="#FFCC00" stroke="#B79300" stroke-width="0.8" stroke-linecap="round" stroke-linejoin="round"/>
<path d="M29.3756 15.5011C28.8467 15.6407 24.7099 16.1845 23.0287 10.5781L29.3756 15.5011Z" fill="#B79300"/>
<path d="M29.3756 15.5011C28.8467 15.6407 24.7099 16.1845 23.0287 10.5781" stroke="#B79300" stroke-width="0.8" stroke-miterlimit="10"/>
<path d="M23.0287 10.5781C23.0287 10.5781 27.9934 11.1036 29.4258 15.4976C29.4258 15.497 29.4085 15.4987 29.3756 15.5011" fill="#FFCC00"/>
<path d="M23.0287 10.5781C23.0287 10.5781 27.9934 11.1036 29.4258 15.4976C29.4258 15.497 29.4085 15.4987 29.3756 15.5011" stroke="#B79300" stroke-width="0.8" stroke-miterlimit="10"/>
<path d="M23.0287 10.5781C25.2256 12.4773 27.3482 13.9152 29.4345 15.6063" stroke="#B79300" stroke-width="0.8" stroke-miterlimit="10"/>
<path d="M26.3959 27.5484L24.7499 27.9801L22.4819 26.5693L26.3959 26.5952" fill="#B79300"/>
<path d="M26.3959 27.5484L24.7499 27.9801L22.4819 26.5693L26.3959 26.5952" stroke="#B79300" stroke-width="0.8" stroke-miterlimit="10" stroke-linecap="round" stroke-linejoin="round"/>
<path d="M26.3961 27.5493L28.2106 27.981L30.0761 26.5718L26.3961 26.5961" fill="#B79300"/>
<path d="M26.3961 27.5493L28.2106 27.981L30.0761 26.5718L26.3961 26.5961" stroke="#B79300" stroke-width="0.8" stroke-miterlimit="10" stroke-linecap="round" stroke-linejoin="round"/>
<path d="M22.5261 26.5691H29.4002" stroke="black" stroke-width="0.8" stroke-miterlimit="10"/>
<path d="M26.3961 26.5953L30.0761 26.571L28.0522 25.0588L26.3961 25.4905" fill="#FFCC00"/>
<path d="M26.3961 26.5953L30.0761 26.571L28.0522 25.0588L26.3961 25.4905" stroke="#B79300" stroke-width="0.8" stroke-miterlimit="10" stroke-linecap="round" stroke-linejoin="round"/>
<path d="M26.3959 26.5953L22.4819 26.5694L24.7395 25.0588L26.3959 25.4905" fill="#FFCC00"/>
<path d="M26.3959 26.5953L22.4819 26.5694L24.7395 25.0588L26.3959 25.4905" stroke="#B79300" stroke-width="0.8" stroke-miterlimit="10" stroke-linecap="round" stroke-linejoin="round"/>
<path d="M28.5913 27.8322C28.566 27.8259 31.0235 23.0092 35.5332 22.1682C35.5332 22.1726 35.5317 22.1951 35.5281 22.2338" fill="#FFCC00"/>
<path d="M28.5913 27.8322C28.566 27.8259 31.0235 23.0092 35.5332 22.1682C35.5332 22.1726 35.5317 22.1951 35.5281 22.2338" stroke="#B79300" stroke-width="0.8" stroke-miterlimit="10"/>
<path d="M24.1911 30.1165C24.1911 30.1165 24.2122 30.106 24.2438 30.0955C24.286 30.0744 24.3388 30.0534 24.4126 30.0113C24.5709 29.9376 24.7924 29.8218 25.0667 29.6639C25.3516 29.5059 25.6786 29.2954 26.0584 29.0427C26.4277 28.79 26.8391 28.4847 27.2506 28.1163C27.6726 27.7478 28.0945 27.3267 28.506 26.8529C28.9069 26.3686 29.2972 25.8212 29.6137 25.2211C29.9302 24.6105 30.1834 23.9472 30.3417 23.2524C30.3628 23.1682 30.3839 23.0734 30.3944 22.9892L30.4366 22.726C30.4683 22.5471 30.4788 22.3681 30.4999 22.1891L30.5105 22.0522V22.0206C30.5105 22.0101 30.5105 22.0206 30.5105 22.0206V22.0101V21.989V21.9154L30.521 21.6311C30.5316 21.4416 30.521 21.2626 30.521 21.0731C30.5105 20.3362 30.4366 19.5887 30.3311 18.8623C30.2256 18.1359 29.9676 17.0667 29.7988 16.3824L30.263 16.2561C30.6428 17.6352 31.038 19.5045 31.0907 21.0521C31.0907 21.2416 31.1013 21.4521 31.1013 21.6311V21.9154V21.989V22.0101V22.0312V22.0628L31.0907 22.2102C31.0802 22.4102 31.0696 22.5997 31.038 22.7892L30.9958 23.0734C30.9747 23.1682 30.9536 23.2629 30.943 23.3577C30.7848 24.1157 30.5316 24.8421 30.194 25.5054C29.8564 26.1581 29.4555 26.7582 29.0335 27.2846C28.6115 27.811 28.1684 28.2637 27.7359 28.6532C27.3033 29.0427 26.8813 29.3796 26.491 29.6533C26.1006 29.927 25.7525 30.1481 25.4571 30.3271C25.1617 30.5061 24.9296 30.6324 24.7608 30.7166C24.6764 30.7587 24.6131 30.7903 24.5709 30.8114C24.5287 30.8324 24.497 30.843 24.497 30.843L24.4654 30.8219C24.2544 30.6851 24.1383 30.4008 24.1911 30.1165H24.1911Z" fill="#B79300" stroke="#B79300" stroke-width="0.8" stroke-miterlimit="10" stroke-linejoin="round"/>
<path d="M29.8772 15.1463C30.1831 15.1463 30.4363 15.399 30.4363 15.7043C30.4363 16.0096 30.1831 16.2623 29.8772 16.2623C29.5712 16.2623 29.318 16.0096 29.318 15.7043C29.318 15.399 29.5712 15.1463 29.8772 15.1463ZM29.8772 14.9358C29.4446 14.9358 29.107 15.2832 29.107 15.7043C29.107 16.136 29.4552 16.4728 29.8772 16.4728C30.2992 16.4728 30.6473 16.1254 30.6473 15.7043C30.6473 15.2832 30.3097 14.9358 29.8772 14.9358Z" fill="#B79300"/>
<path d="M29.8772 16.3783C29.5079 16.3783 29.2125 16.0835 29.2125 15.715C29.2125 15.3465 29.5079 15.0518 29.8772 15.0518C30.2464 15.0518 30.5418 15.3465 30.5418 15.715C30.5418 16.0835 30.2464 16.3783 29.8772 16.3783Z" fill="url(#paint0_radial_580_1836)"/>
<path d="M30.7535 21.2953C31.0805 21.2953 31.3548 21.5585 31.3548 21.8954C31.3548 22.2217 31.0911 22.4954 30.7535 22.4954C30.4264 22.4954 30.1521 22.2322 30.1521 21.8954C30.1627 21.5585 30.4264 21.2953 30.7535 21.2953ZM30.7535 21.0847C30.3104 21.0847 29.9411 21.4427 29.9411 21.8954C29.9411 22.3375 30.2998 22.706 30.7535 22.706C31.1966 22.706 31.5658 22.3481 31.5658 21.8954C31.5658 21.4427 31.2071 21.0847 30.7535 21.0847Z" fill="#B79300"/>
<path d="M30.7533 22.5904C30.363 22.5904 30.0465 22.2746 30.0465 21.885C30.0465 21.4955 30.363 21.1797 30.7533 21.1797C31.1437 21.1797 31.4601 21.4955 31.4601 21.885C31.4601 22.2746 31.1437 22.5904 30.7533 22.5904Z" fill="url(#paint1_radial_580_1836)"/>
<path d="M28.4947 45.2227C28.7073 45.2012 28.9197 45.1773 29.1319 45.1511C29.4356 45.1135 29.5541 44.9853 29.4749 44.6949C29.4053 44.4397 29.3367 44.1843 29.2691 43.9287C29.2575 43.8915 29.2301 43.8756 29.1869 43.8808C28.9747 43.906 28.7622 43.9288 28.5494 43.9493C28.643 43.6831 28.7332 43.4165 28.8201 43.1495C29.1218 43.1167 29.4228 43.079 29.7226 43.0361C29.808 43.0239 29.868 43.0307 29.9029 43.0572C29.9391 43.0817 29.97 43.1377 29.9956 43.2254C30.2195 43.9854 30.4528 44.7431 30.6956 45.4983C30.4357 45.6493 30.1721 45.7966 29.9051 45.9402C29.809 45.6669 29.7147 45.3931 29.622 45.1189C29.5193 45.3923 29.4128 45.6652 29.3026 45.9375C28.9549 45.98 28.6069 46.0162 28.2587 46.0464C28.34 45.7722 28.4187 45.4976 28.4947 45.2227Z" fill="#B79300"/>
<path d="M19.7473 41.8012C19.4946 41.856 19.239 41.9052 18.9803 41.9482C18.8667 42.2696 18.753 42.591 18.6393 42.9123C18.6236 42.9362 18.6312 42.9536 18.6621 42.9643C19.1178 43.1223 19.58 43.2619 20.0474 43.3843L19.709 44.6702C19.4385 44.5991 19.1693 44.5226 18.9016 44.4404C18.7386 44.6464 18.5725 44.8508 18.4031 45.0533C18.9346 45.2246 19.4714 45.3743 20.0117 45.5036C20.2062 45.3497 20.3969 45.1931 20.584 45.0342L21.0159 43.04C21.0482 42.8909 20.9746 42.8205 20.8593 42.7945C20.4174 42.6949 19.9803 42.58 19.5493 42.4489C19.6153 42.233 19.6813 42.0171 19.7473 41.8012Z" fill="#B79300"/>
<path d="M38.3032 40.4167C38.3564 40.1791 38.405 39.9419 38.449 39.7052C39.0915 39.8997 39.7536 40.0658 40.4323 40.2036C40.4659 40.2068 40.4731 40.1948 40.4529 40.1687C40.3242 39.9972 40.1954 39.8256 40.0667 39.6541C39.9689 39.7272 39.8706 39.7995 39.7717 39.8711C39.7011 39.607 39.6273 39.3442 39.5506 39.0828C39.6358 39.0195 39.7206 38.9554 39.8049 38.8908C39.8899 38.8257 39.9744 38.7599 40.0585 38.6935C40.1702 38.6054 40.272 38.6199 40.3644 38.74C40.5682 39.0025 40.7718 39.265 40.9752 39.5277C41.0151 39.5826 41.0222 39.6338 40.996 39.6813C40.8938 39.8691 40.7885 40.0562 40.6801 40.2425C41.0734 40.3235 41.472 40.3951 41.8755 40.4575C41.7838 40.7032 41.6873 40.9488 41.5859 41.1942C40.8356 41.0656 40.1026 40.9051 39.3909 40.7122C39.3509 40.7035 39.341 40.7143 39.3615 40.7445C39.5187 40.9819 39.676 41.2193 39.8331 41.4567C39.9548 41.3755 40.0757 41.2931 40.1958 41.2097C40.2891 41.441 40.3809 41.673 40.4711 41.9058C40.19 42.098 39.9047 42.2845 39.6152 42.4652C39.5717 42.4923 39.5339 42.4799 39.5018 42.4284L38.8134 41.3223C38.7813 41.2707 38.7787 41.2295 38.8054 41.1986C38.8996 41.0154 38.9906 40.8318 39.0784 40.6479C38.8169 40.5753 38.5585 40.4982 38.3032 40.4167L38.3032 40.4167Z" fill="#B79300"/>
<path d="M34.2059 44.9984L33.7769 43.6126L33.7546 43.5405C33.7573 43.5251 33.7724 43.5078 33.7997 43.4883C34.0392 43.3493 34.2751 43.2064 34.5073 43.0596L34.99 44.4303C34.7337 44.624 34.4722 44.8134 34.2059 44.9984Z" fill="#B79300"/>
<path d="M33.5514 42.1721C33.821 42.0862 34.0886 41.995 34.354 41.8984C34.7063 41.7702 35.0547 41.6323 35.3985 41.4846C35.6332 41.3837 35.8046 41.448 35.9133 41.6879L36.8252 43.7008C36.5717 43.922 36.312 44.1384 36.0465 44.35L35.2826 42.4497C35.2625 42.3997 35.2186 42.3884 35.1511 42.415C34.6282 42.6214 34.097 42.8067 33.5592 42.9719C33.5593 42.7049 33.5567 42.4383 33.5514 42.1721Z" fill="#B79300"/>
<path d="M30.9939 45.7708L30.7423 44.3389L30.7293 44.2644C30.7339 44.2495 30.7511 44.2341 30.7807 44.2182C31.0361 44.1102 31.2888 43.9984 31.5386 43.883L31.8385 45.3071C31.561 45.4661 31.2793 45.6206 30.9939 45.7708Z" fill="#B79300"/>
<path d="M30.7008 42.8781C30.9816 42.8268 31.2612 42.7708 31.5393 42.7098C31.9085 42.6289 32.2751 42.5394 32.6386 42.4408C32.8868 42.3735 33.0481 42.4616 33.1217 42.7138L33.7399 44.8317C33.4609 45.0152 33.1768 45.1939 32.888 45.3677L32.3892 43.3808C32.3761 43.3285 32.3341 43.3113 32.2634 43.3287C31.7158 43.4627 31.1629 43.5776 30.6061 43.6744C30.64 43.4088 30.6716 43.1434 30.7008 42.8781Z" fill="#B79300"/>
<path d="M40.696 38.1722C40.8034 38.4166 40.9086 38.6623 41.0116 38.9093C41.3504 38.6279 41.6817 38.337 42.0055 38.0375C42.0224 38.0219 42.0392 38.0064 42.0559 37.9908C42.1005 37.9493 42.1424 37.9493 42.1818 37.9913L42.7117 38.5549C42.8574 38.7099 42.9768 38.8317 43.0635 38.9131C42.6841 39.268 42.2943 39.612 41.8942 39.944C41.9716 40.1876 42.0465 40.4325 42.1189 40.6786C42.8638 40.0757 43.574 39.4328 44.248 38.7566C44.1596 38.5091 44.0687 38.263 43.9753 38.0186C43.8576 38.1396 43.7388 38.2596 43.6188 38.3785C43.3141 38.6804 43.6231 38.1873 43.3908 37.9563L42.3761 36.9477C42.2622 36.8345 42.1337 36.8498 42.0451 36.9371C41.6099 37.366 41.16 37.7785 40.696 38.1722L40.696 38.1722Z" fill="#B79300"/>
<path d="M44.4662 38.5345C44.3775 38.2954 44.2864 38.0578 44.1931 37.8217C44.5556 37.441 44.907 37.0503 45.2471 36.6507C44.9815 36.7014 44.5764 36.7119 44.1054 36.7312C43.9753 36.7343 43.7273 36.7165 43.3769 36.67C43.2639 36.7912 43.1497 36.9114 43.0345 37.0305C42.9366 36.763 42.8356 36.4974 42.7316 36.2339C42.8859 36.07 43.0381 35.904 43.1883 35.7361C43.2233 35.697 43.2729 35.6923 43.3374 35.7221C43.6241 35.8459 43.9107 35.9133 44.1979 35.9219C44.3533 35.9246 44.5742 35.9126 44.8557 35.8813C44.9155 35.8777 44.919 35.854 44.8666 35.8108L44.4411 35.4596C44.3772 35.5367 44.3129 35.6134 44.2481 35.6898C44.1207 35.4436 43.9911 35.1994 43.8592 34.957C43.9967 34.7913 44.1322 34.624 44.2659 34.4552C44.3582 34.3386 44.4627 34.327 44.5806 34.4224C44.8278 34.6265 45.0747 34.8308 45.3215 35.0354C45.2559 35.3084 45.1857 35.5819 45.1108 35.8558C45.4034 35.8242 45.7357 35.7806 46.0775 35.6941C46.1644 35.9353 46.2489 36.1783 46.3308 36.4232C45.7456 37.1544 45.1236 37.8603 44.4662 38.5345L44.4662 38.5345Z" fill="#B79300"/>
<path d="M26.1781 46.1519C26.2142 45.9057 26.2493 45.6595 26.2833 45.4133C26.3328 45.4123 26.3823 45.4112 26.4317 45.4099C26.6579 45.405 26.8843 45.3976 27.1107 45.3877L27.0509 44.0551C26.9075 44.0615 26.764 44.067 26.6205 44.0714C26.6585 43.8144 26.6955 43.5573 26.7312 43.3001C27.0429 43.2887 27.3543 43.2727 27.6652 43.2517C27.7857 43.2435 27.8779 43.2904 27.8893 43.4429L28.0538 45.6423C27.9167 45.7954 27.7774 45.9476 27.6362 46.0988C27.2401 46.1221 26.8443 46.1378 26.449 46.146C26.3588 46.1484 26.2685 46.1504 26.1781 46.1519L26.1781 46.1519Z" fill="#B79300"/>
<path d="M17.2285 42.3951C17.3746 42.1805 17.5188 41.9651 17.6612 41.7487C17.9006 41.8547 18.1427 41.9547 18.3872 42.049C18.5681 42.1186 18.6292 42.2375 18.5659 42.4106L18.5569 42.435C18.4335 42.7732 18.3101 43.1114 18.1867 43.4497C17.8804 43.4415 17.5719 43.4254 17.2614 43.4009L17.6143 42.5629C17.485 42.5085 17.3564 42.4526 17.2285 42.3951L17.2285 42.3951Z" fill="#B79300"/>
<path d="M14.2331 39.8108C13.9916 39.9552 13.7475 40.0969 13.5011 40.236C13.6052 40.3099 13.7099 40.3829 13.8151 40.4552C13.4725 41.0801 13.135 41.7081 12.8028 42.3392C13.3162 42.6709 13.8426 42.9865 14.3822 43.2829C14.8963 43.5663 15.3059 43.6698 15.5805 43.623C15.7827 43.5927 15.9973 43.438 16.223 43.1589C16.5881 42.7109 16.9443 42.257 17.2912 41.7972C17.3029 41.7796 17.3119 41.7637 17.3185 41.7495C17.3581 41.6641 17.3255 41.5978 17.222 41.5489C16.9564 41.4236 16.6935 41.2916 16.4331 41.1535C16.2432 41.3421 16.0508 41.5288 15.856 41.7137C15.9678 41.7747 16.0802 41.8347 16.193 41.8936C15.948 42.1688 15.6991 42.4413 15.4465 42.7111C15.3874 42.782 15.3234 42.8156 15.2543 42.8117C15.1627 42.8151 15.0228 42.7687 14.8369 42.6715C14.5232 42.508 14.2133 42.3374 13.9074 42.1605C13.9702 42.0467 14.0331 41.9329 14.0961 41.8192C14.3057 41.9369 14.5169 42.0516 14.7297 42.163C14.8309 42.2161 14.9218 42.2179 15 42.1726C15.4153 41.8017 15.8212 41.4233 16.2168 41.037C15.9396 40.8856 15.6654 40.7273 15.3941 40.5629C15.1622 40.7214 14.9273 40.877 14.6895 41.0299C14.7974 41.0976 14.9059 41.1643 15.0149 41.2302C15.0166 41.2294 15.0183 41.2286 15.02 41.2278C14.889 41.3437 14.7571 41.4588 14.6243 41.5732C14.4957 41.6733 14.4013 41.6496 14.2474 41.5574C14.4506 41.1812 14.6551 40.8057 14.8609 40.4311C14.9176 40.333 14.8947 40.2516 14.7933 40.1857C14.6051 40.0635 14.4184 39.9385 14.2331 39.8108L14.2331 39.8108Z" fill="#B79300"/>
<path d="M12.1675 38.2409C12.2695 38.3256 12.372 38.4097 12.4749 38.493C12.6234 38.6133 12.7728 38.7321 12.9233 38.8494C13.0737 38.9665 13.225 39.0821 13.3774 39.1961C13.5856 39.3518 13.615 39.5341 13.4597 39.7468L12.1557 41.5336C11.8416 41.4269 11.5286 41.3144 11.2171 41.1967L12.4777 39.5775C12.5091 39.5372 12.4996 39.4959 12.4497 39.4535C12.4469 39.4511 12.4439 39.4487 12.4408 39.4463C12.1203 39.196 11.8047 38.9395 11.4935 38.6773C11.7194 38.5332 11.9441 38.3877 12.1675 38.2409L12.1675 38.2409Z" fill="#B79300"/>
<path d="M23.0804 46.0857L23.2274 44.6384L23.235 44.5631C23.2435 44.55 23.2643 44.5398 23.2972 44.5325C23.5727 44.4977 23.8467 44.458 24.1189 44.4137L24.024 45.8686C23.7129 45.9469 23.3983 46.0194 23.0804 46.0857Z" fill="#B79300"/>
<path d="M23.583 43.2184C23.8664 43.2442 24.1507 43.2647 24.4356 43.2803C24.8137 43.3009 25.1929 43.3128 25.5723 43.3164C25.8316 43.3188 25.9637 43.4481 25.9657 43.7113L25.9816 45.9223C25.6648 46.0236 25.344 46.1194 25.0193 46.2092L25.0754 44.1564C25.0768 44.1023 25.0409 44.0745 24.9679 44.0721C24.4026 44.0542 23.838 44.0174 23.2763 43.9603C23.3811 43.7137 23.4833 43.4664 23.583 43.2184Z" fill="#B79300"/>
<path d="M9.02904 34.3313C8.7706 34.2425 8.5119 34.1512 8.25309 34.0578C8.00052 34.2886 7.74794 34.5195 7.49535 34.7503C7.4701 34.764 7.46875 34.7831 7.49136 34.8075C7.82407 35.1671 8.16087 35.5228 8.50238 35.8735L7.54402 36.8028C7.35429 36.608 7.16625 36.4118 6.97977 36.2146C6.7375 36.316 6.49463 36.4165 6.25122 36.5161C6.61165 36.9012 6.9784 37.2828 7.35216 37.6596C7.59455 37.6262 7.8363 37.5912 8.0773 37.5547L9.52077 36.104C9.62863 35.9956 9.60296 35.8945 9.5164 35.8079C9.18502 35.4764 8.85784 35.1394 8.53425 34.7979C8.69919 34.6424 8.86412 34.4868 9.02906 34.3313L9.02904 34.3313Z" fill="#B79300"/>
<path d="M9.60144 36.4533C9.84815 36.4511 10.0941 36.4467 10.339 36.4401C10.3012 37.1188 10.2793 37.8028 10.277 38.4931C10.2804 38.5265 10.2935 38.5311 10.3153 38.5063C10.4584 38.3462 10.6016 38.1862 10.7448 38.0261C10.653 37.9444 10.5617 37.8621 10.4707 37.7795C10.7161 37.6568 10.9604 37.5326 11.2033 37.4068C11.2841 37.479 11.3651 37.5509 11.4464 37.6224C11.5283 37.6944 11.6105 37.7659 11.693 37.8371C11.8026 37.9316 11.8077 38.035 11.7067 38.1478C11.4861 38.3965 11.2654 38.645 11.0446 38.8934C10.998 38.9428 10.9489 38.9593 10.8974 38.9427C10.6938 38.8781 10.4903 38.8114 10.2868 38.7427C10.2828 39.1423 10.2854 39.5441 10.2953 39.9482C10.039 39.9063 9.78238 39.8614 9.52545 39.8138C9.51575 39.063 9.52978 38.3201 9.56343 37.5841C9.56331 37.5432 9.55054 37.5359 9.52542 37.5625C9.32752 37.7683 9.1296 37.974 8.93165 38.1797C9.036 38.2784 9.14088 38.3767 9.24631 38.4745C9.03994 38.6154 8.83294 38.7556 8.62532 38.8951C8.38396 38.6697 8.14558 38.4418 7.91002 38.2119C7.87467 38.1774 7.87844 38.1384 7.92118 38.095L8.83776 37.1635C8.88049 37.12 8.92006 37.1076 8.95644 37.1261C9.15689 37.174 9.35717 37.2203 9.55724 37.265C9.56943 36.9935 9.58424 36.723 9.60144 36.4533Z" fill="#B79300"/>
<path d="M49.1174 30.9355L50.789 30.9398C51.272 30.9409 52.0015 30.7155 52.4806 30.3038C52.1329 29.0483 49.8512 28.7577 48.9039 28.7749L49.1174 30.9355Z" fill="#FFCC00" stroke="#B79300" stroke-width="0.8"/>
<path d="M44.6228 30.9495L44.5527 37.1426L51.0537 36.6435C52.0631 36.4732 52.228 35.9611 52.2539 35.3959L52.504 31.2156C52.504 31.2156 52.5447 30.5605 52.5079 30.3861C52.4387 30.0584 52.1896 29.9761 51.9949 30.1751C51.7515 30.424 51.1369 30.8706 50.6036 30.8663L44.6228 30.9495Z" fill="#FFCC00" stroke="#B79300" stroke-width="0.8"/>
<path d="M3.68287 30.9606L2.01123 30.965C1.52824 30.9661 0.798721 30.7407 0.319649 30.3289C0.667321 29.0734 2.94905 28.7829 3.89639 28.8L3.68287 30.9606Z" fill="#FFCC00" stroke="#B79300" stroke-width="0.8"/>
<path d="M8.17883 30.9751L8.24891 37.1682L1.74785 36.6692C0.738449 36.4988 0.573593 35.9868 0.547646 35.4216L0.297587 31.2412C0.297587 31.2412 0.256877 30.5861 0.293716 30.4117C0.362862 30.084 0.61202 30.0017 0.806648 30.2007C1.05008 30.4497 1.66464 30.8962 2.19797 30.8919L8.17883 30.9751Z" fill="#FFCC00" stroke="#B79300" stroke-width="0.8"/>
<path fill-rule="evenodd" clip-rule="evenodd" d="M26.2299 0.353027C25.1453 0.353027 24.1325 0.935876 23.5843 1.87549C20.4324 8.66249 18.9917 8.44592 11.9644 8.66614C10.8917 8.70189 9.92627 9.28455 9.40204 10.2003C8.86569 11.128 8.85397 12.2695 9.37846 13.1973C13.4878 19.2662 12.8031 20.4019 9.5928 26.4336C9.09225 27.3613 9.11617 28.4909 9.65225 29.4068C10.1886 30.3223 11.1539 30.8934 12.2144 30.9291C19.7734 30.4084 20.2896 31.9412 24.1682 37.9344C24.7403 38.8264 25.6833 39.3496 26.7441 39.3375C27.7929 39.3257 28.8164 38.7667 29.3646 37.8749C32.6472 31.2368 33.8347 31.126 40.722 31.0841C41.8068 31.072 42.8075 30.4895 43.356 29.5618C43.8921 28.6224 43.9041 27.4691 43.3796 26.5295C39.1507 20.4282 40.2139 19.1936 43.3679 12.9358C43.8445 11.9965 43.797 10.8785 43.2604 9.98642C41.0301 11.3678 41.0301 11.3676 43.2604 9.98642C42.7243 9.08255 41.7589 8.52367 40.7101 8.49976C33.1092 8.9992 32.4762 7.94018 28.8757 1.85168C28.3275 0.923901 27.3145 0.353138 26.2299 0.353138V0.353027ZM26.2418 3.40971C30.1301 9.99599 32.3028 12.214 40.6385 11.5566C37.2496 18.2803 35.9588 21.3282 40.6981 28.0157C33.2243 28.0765 30.258 28.9294 26.7441 36.2811V36.2814C22.5962 29.8381 20.6103 27.2137 12.298 27.8734C15.7745 21.3418 16.6696 18.3528 12.0598 11.7231C19.6451 11.485 22.8452 10.9546 26.2418 3.40983V3.40971Z" fill="#FFCC00"/>
<path fill-rule="evenodd" clip-rule="evenodd" d="M26.3286 2.73047C28.8798 9.05641 32.2691 12.4738 40.6374 11.5561C37.2485 18.2798 35.9577 21.3277 40.6971 28.0152C33.2233 28.0761 30.2569 28.929 26.7431 36.2807V36.2809C22.5951 29.8377 20.6093 27.2132 12.297 27.873C15.7734 21.3414 16.6685 18.3523 12.0587 11.7226C19.6441 11.4846 23.2558 10.5777 26.3286 2.73059V2.73047Z" stroke="#B79300" stroke-width="0.8" stroke-linecap="round" stroke-linejoin="round"/>
<path d="M24.1911 30.1177C24.1911 30.1177 24.2122 30.1071 24.2438 30.0966C24.286 30.0755 24.3388 30.0545 24.4126 30.0124C24.5709 29.9387 24.7924 29.8229 25.0667 29.665C25.3516 29.507 25.6786 29.2965 26.0584 29.0438C26.4277 28.7912 26.8391 28.4859 27.2506 28.1174C27.6726 27.7489 28.0945 27.3278 28.506 26.854C28.9069 26.3698 29.2972 25.8223 29.6137 25.2222C29.9302 24.6116 30.1834 23.9484 30.3417 23.2535C30.3628 23.1693 30.3839 23.0746 30.3944 22.9903L30.4366 22.7272C30.4683 22.5482 30.4788 22.3692 30.4999 22.1902L30.5105 22.0534V22.0218C30.5105 22.0112 30.5105 22.0218 30.5105 22.0218V22.0112V21.9902V21.9165L30.521 21.6322C30.5316 21.4427 30.521 21.2638 30.521 21.0743C30.5105 20.3373 30.4366 19.5898 30.3311 18.8634C30.2256 18.137 30.0674 17.4211 29.8986 16.7368C29.5504 15.3682 29.1179 14.1259 28.7065 13.0731C28.295 12.0203 27.8941 11.1571 27.6093 10.5675C27.4616 10.2727 27.3455 10.0411 27.2611 9.8832C27.1767 9.72529 27.1345 9.64107 27.1345 9.64107L27.4194 9.48315C27.4194 9.48315 27.4616 9.56738 27.5565 9.72529C27.6409 9.8832 27.7675 10.1148 27.9152 10.4096C28.2212 10.9992 28.6326 11.8624 29.0757 12.9152C29.5188 13.968 29.983 15.2313 30.3628 16.6105C30.7426 17.9896 31.038 19.5056 31.0907 21.0532C31.0907 21.2427 31.1013 21.4533 31.1013 21.6322V21.9165V21.9902V22.0112V22.0323V22.0639L31.0907 22.2113C31.0802 22.4113 31.0696 22.6008 31.038 22.7903L30.9958 23.0746C30.9747 23.1693 30.9536 23.2641 30.943 23.3588C30.7848 24.1168 30.5316 24.8432 30.194 25.5065C29.8564 26.1592 29.4555 26.7593 29.0335 27.2857C28.6115 27.8121 28.1684 28.2648 27.7359 28.6543C27.3033 29.0438 26.8813 29.3807 26.491 29.6544C26.1006 29.9282 25.7525 30.1493 25.4571 30.3282C25.1617 30.5072 24.9296 30.6335 24.7608 30.7178C24.6764 30.7599 24.6131 30.7914 24.5709 30.8125C24.5287 30.8336 24.497 30.8441 24.497 30.8441L24.4654 30.823C24.2544 30.6862 24.1383 30.4019 24.1911 30.1177H24.1911Z" fill="#FFCC00" stroke="#B79300" stroke-width="0.8" stroke-miterlimit="10" stroke-linejoin="round"/>
<path fill-rule="evenodd" clip-rule="evenodd" d="M26.23 0.352876C25.1455 0.352876 24.1327 0.935703 23.5844 1.87531C20.4326 8.66231 18.9918 8.44572 11.9645 8.66593C10.8918 8.70168 9.92639 9.28434 9.40216 10.2C8.86581 11.1278 8.85406 12.2693 9.37857 13.1971C13.4879 19.266 12.8032 20.4017 9.59293 26.4334C9.09239 27.3611 9.11629 28.4907 9.65237 29.4067C10.1887 30.3221 11.154 30.8932 12.2145 30.9289C19.7735 30.4082 20.2897 31.9411 24.1683 37.9342C24.7404 38.8263 25.7296 39.3494 26.7905 39.3373C27.8392 39.3255 28.8165 38.7665 29.3647 37.8747C32.6473 31.2366 33.8348 31.1258 40.7222 31.0839C41.8069 31.0718 42.8077 30.4892 43.3562 29.5615C43.8922 28.6221 43.9043 27.4689 43.3798 26.5294C39.151 20.4281 40.2141 19.1935 43.3681 12.9357C43.8447 11.9964 43.7972 10.8784 43.2606 9.98632V9.98604C42.7245 9.08217 41.759 8.52328 40.7103 8.49937C33.1094 8.99883 32.4763 7.9398 28.8758 1.85131C28.3276 0.923529 27.3146 0.352783 26.23 0.352783V0.352876Z" stroke="#B79300" stroke-width="0.8"/>
<path d="M24.7392 26.8447V34.0236H26.385H28.0414V26.8447H24.7392Z" fill="#FFCC00" stroke="#B79300" stroke-width="0.8" stroke-miterlimit="10"/>
<path d="M28.028 28.6941L24.7787 29.9048L24.8349 30.1072L28.028 28.9152V28.6941Z" fill="#B79300"/>
<path d="M24.7615 29.0748L28.0003 27.8642V27.6431L24.7615 28.8538V29.0748Z" fill="#B79300"/>
<path d="M22.4716 5.40796C22.4716 5.40796 27.0519 6.4377 27.2501 10.5337L22.4716 5.40796Z" fill="#FFCC00"/>
<path d="M22.4716 5.40796C22.4716 5.40796 27.0519 6.4377 27.2501 10.5337" stroke="#B79300" stroke-width="0.8" stroke-miterlimit="10"/>
<path d="M27.2507 10.5337C27.2507 10.5376 27.2507 10.5416 27.2517 10.5455C27.2411 10.535 24.3399 11.1667 22.4725 5.40796" fill="#B79300"/>
<path d="M27.2507 10.5337C27.2507 10.5376 27.2507 10.5416 27.2517 10.5455C27.2411 10.535 24.3399 11.1667 22.4725 5.40796" stroke="#B79300" stroke-width="0.8" stroke-miterlimit="10"/>
<path d="M22.4716 5.40796C24.2974 7.27138 25.5586 8.9453 27.0185 10.356L27.2506 10.535" stroke="#B79300" stroke-width="0.8" stroke-miterlimit="10"/>
<path d="M25.415 5.31337L26.3961 2.64673V26.3657H24.7398V20.5366V9.16655C24.7398 7.85058 24.9719 6.55566 25.415 5.31337H25.415Z" fill="#FFCC00"/>
<path d="M27.3775 5.31337L26.3964 2.64673V26.3657H28.0527V20.5366V9.16655C28.0527 7.85058 27.8206 6.55566 27.3775 5.31337H27.3775Z" fill="#B79300"/>
<path d="M28.0283 32.8064L24.7392 34.0229V34.2545L28.0283 33.038V32.8064Z" fill="#B79300"/>
<path d="M28.559 34.9806H24.2336C24.0331 34.9806 23.8643 34.8121 23.8643 34.6121V34.012C23.8643 33.812 24.0331 33.6436 24.2336 33.6436H28.559C28.7595 33.6436 28.9283 33.812 28.9283 34.012V34.6121C28.9283 34.8121 28.7595 34.9806 28.559 34.9806Z" fill="#FFCC00" stroke="#B79300" stroke-width="0.8" stroke-miterlimit="10"/>
<path d="M28.0295 31.7534L24.7751 32.9689V33.2005L28.0295 31.985V31.7534Z" fill="#B79300"/>
<path d="M28.0291 30.7307L24.7717 31.9392V32.1708L28.0291 30.9623V30.7307Z" fill="#B79300"/>
<path d="M28.0287 29.7219L24.764 30.9386V31.1597L28.0287 29.943V29.7219Z" fill="#B79300"/>
<path d="M26.3958 25.674V2.69336" stroke="#B79300" stroke-width="0.8" stroke-miterlimit="10" stroke-linecap="round" stroke-linejoin="round"/>
<path d="M31.3893 21.6657C31.3539 21.676 31.3182 21.6859 31.282 21.6956C31.282 21.6956 31.1769 17.6265 34.5645 15.3918" fill="#FFCC00"/>
<path d="M31.3893 21.6657C31.3539 21.676 31.3182 21.686 31.282 21.6956C31.282 21.6956 31.1769 17.6265 34.5645 15.3918" stroke="#B79300" stroke-width="0.8" stroke-miterlimit="10"/>
<path d="M34.563 15.3916C34.5696 15.3873 34.5762 15.383 34.5828 15.3787C34.5861 15.4035 35.2978 20.5284 31.3879 21.6655" fill="#B79300"/>
<path d="M34.563 15.3916C34.5696 15.3873 34.5762 15.383 34.5828 15.3787C34.5861 15.4035 35.2978 20.5284 31.3879 21.6655" stroke="#B79300" stroke-width="0.8" stroke-miterlimit="10"/>
<path d="M30.9325 7.30322C30.9325 7.30322 33.3063 13.3567 29.9831 15.4623L30.9325 7.30322Z" fill="#B79300"/>
<path d="M30.9325 7.30322C30.9325 7.30322 33.3063 13.3567 29.9831 15.4623" stroke="#B79300" stroke-width="0.8" stroke-miterlimit="10"/>
<path d="M29.9835 15.4623C29.9835 15.4623 28.1056 9.95623 30.933 7.30322L29.9835 15.4623Z" fill="#FFCC00"/>
<path d="M29.9835 15.4623C29.9835 15.4623 28.1056 9.95623 30.933 7.30322" stroke="#B79300" stroke-width="0.8" stroke-miterlimit="10"/>
<path d="M35.5282 22.2341C35.475 22.8087 34.8878 26.9448 28.5914 27.8326L35.5282 22.2341Z" fill="#B79300"/>
<path d="M35.5282 22.2341C35.475 22.8087 34.8878 26.9448 28.5914 27.8326" stroke="#B79300" stroke-width="0.8" stroke-miterlimit="10"/>
<path d="M26.3589 2.82788L25.4146 5.31351C24.9715 6.55579 24.7394 7.85072 24.7394 9.16669V20.5367V26.3659H26.3957H28.052V20.5367V9.16669C28.052 7.85072 27.8199 6.55579 27.3768 5.31351L26.3589 2.82788Z" stroke="#B79300" stroke-width="0.8" stroke-miterlimit="10"/>
<path d="M23.0735 16.042C25.7111 18.2489 28.2595 19.9198 30.7644 21.8849" stroke="black" stroke-width="0.8" stroke-miterlimit="10"/>
<path d="M23.0736 16.042C23.0736 16.042 29.0343 16.6526 30.7539 21.7586C30.7539 21.7579 30.7332 21.7599 30.6937 21.7626" fill="#FFCC00"/>
<path d="M23.0736 16.042C23.0736 16.042 29.0343 16.6526 30.7539 21.7586C30.7539 21.7579 30.7332 21.7599 30.6937 21.7626" stroke="#B79300" stroke-width="0.8" stroke-miterlimit="10"/>
<path d="M30.6937 21.7626C30.1007 21.8035 25.2794 22.0139 23.0736 16.042L30.6937 21.7626Z" fill="#B79300"/>
<path d="M30.6937 21.7626C30.1007 21.8035 25.2794 22.0139 23.0736 16.042" stroke="#B79300" stroke-width="0.8" stroke-miterlimit="10"/>
<path d="M23.0736 16.042C25.7112 18.2489 28.2596 19.9198 30.7645 21.8849" stroke="#B79300" stroke-width="0.8" stroke-miterlimit="10"/>
<path d="M34.573 15.3784C33.467 17.6509 32.4402 19.757 31.2814 21.8846" stroke="#B79300" stroke-width="0.8" stroke-miterlimit="10"/>
<path d="M28.5914 27.8321C28.5914 27.8321 33.5245 23.9223 35.5236 22.2788" stroke="#B79300" stroke-width="0.8" stroke-miterlimit="10"/>
<path d="M29.5611 15.567C27.2978 14.1177 25.0462 12.7297 23.1994 10.7664" stroke="black" stroke-width="0.8" stroke-miterlimit="10"/>
<path d="M30.9325 7.30322C30.6776 10.0518 30.3322 12.8908 29.983 15.1991V15.4623" stroke="#B79300" stroke-width="0.8" stroke-miterlimit="10"/>
<path fill-rule="evenodd" clip-rule="evenodd" d="M8.3525 30.95L4.55963 36.8874C10.2235 44.1935 17.1254 47.7912 26.378 47.7261C35.6306 47.7912 42.5328 44.1935 48.1966 36.8874L44.4037 30.95C41.5942 37.1285 34.5378 41.6719 26.378 41.6419C18.2183 41.6718 11.162 37.1284 8.3525 30.95Z" fill="#FFCC00" stroke="#B79300" stroke-width="0.8" stroke-linecap="round" stroke-linejoin="round"/>
<path d="M29.3756 15.5011C28.8467 15.6407 24.7099 16.1845 23.0287 10.5781L29.3756 15.5011Z" fill="#B79300"/>
<path d="M29.3756 15.5011C28.8467 15.6407 24.7099 16.1845 23.0287 10.5781" stroke="#B79300" stroke-width="0.8" stroke-miterlimit="10"/>
<path d="M23.0287 10.5781C23.0287 10.5781 27.9934 11.1036 29.4258 15.4976C29.4258 15.497 29.4085 15.4987 29.3756 15.5011" fill="#FFCC00"/>
<path d="M23.0287 10.5781C23.0287 10.5781 27.9934 11.1036 29.4258 15.4976C29.4258 15.497 29.4085 15.4987 29.3756 15.5011" stroke="#B79300" stroke-width="0.8" stroke-miterlimit="10"/>
<path d="M23.0287 10.5781C25.2256 12.4773 27.3482 13.9152 29.4345 15.6063" stroke="#B79300" stroke-width="0.8" stroke-miterlimit="10"/>
<path d="M26.3959 27.5484L24.7499 27.9801L22.4819 26.5693L26.3959 26.5952" fill="#B79300"/>
<path d="M26.3959 27.5484L24.7499 27.9801L22.4819 26.5693L26.3959 26.5952" stroke="#B79300" stroke-width="0.8" stroke-miterlimit="10" stroke-linecap="round" stroke-linejoin="round"/>
<path d="M26.3961 27.5493L28.2106 27.981L30.0761 26.5718L26.3961 26.5961" fill="#B79300"/>
<path d="M26.3961 27.5493L28.2106 27.981L30.0761 26.5718L26.3961 26.5961" stroke="#B79300" stroke-width="0.8" stroke-miterlimit="10" stroke-linecap="round" stroke-linejoin="round"/>
<path d="M22.5261 26.5691H29.4002" stroke="black" stroke-width="0.8" stroke-miterlimit="10"/>
<path d="M26.3961 26.5953L30.0761 26.571L28.0522 25.0588L26.3961 25.4905" fill="#FFCC00"/>
<path d="M26.3961 26.5953L30.0761 26.571L28.0522 25.0588L26.3961 25.4905" stroke="#B79300" stroke-width="0.8" stroke-miterlimit="10" stroke-linecap="round" stroke-linejoin="round"/>
<path d="M26.3959 26.5953L22.4819 26.5694L24.7395 25.0588L26.3959 25.4905" fill="#FFCC00"/>
<path d="M26.3959 26.5953L22.4819 26.5694L24.7395 25.0588L26.3959 25.4905" stroke="#B79300" stroke-width="0.8" stroke-miterlimit="10" stroke-linecap="round" stroke-linejoin="round"/>
<path d="M28.5913 27.8322C28.566 27.8259 31.0235 23.0092 35.5332 22.1682C35.5332 22.1726 35.5317 22.1951 35.5281 22.2338" fill="#FFCC00"/>
<path d="M28.5913 27.8322C28.566 27.8259 31.0235 23.0092 35.5332 22.1682C35.5332 22.1726 35.5317 22.1951 35.5281 22.2338" stroke="#B79300" stroke-width="0.8" stroke-miterlimit="10"/>
<path d="M24.1911 30.1165C24.1911 30.1165 24.2122 30.106 24.2438 30.0955C24.286 30.0744 24.3388 30.0534 24.4126 30.0113C24.5709 29.9376 24.7924 29.8218 25.0667 29.6639C25.3516 29.5059 25.6786 29.2954 26.0584 29.0427C26.4277 28.79 26.8391 28.4847 27.2506 28.1163C27.6726 27.7478 28.0945 27.3267 28.506 26.8529C28.9069 26.3686 29.2972 25.8212 29.6137 25.2211C29.9302 24.6105 30.1834 23.9472 30.3417 23.2524C30.3628 23.1682 30.3839 23.0734 30.3944 22.9892L30.4366 22.726C30.4683 22.5471 30.4788 22.3681 30.4999 22.1891L30.5105 22.0522V22.0206C30.5105 22.0101 30.5105 22.0206 30.5105 22.0206V22.0101V21.989V21.9154L30.521 21.6311C30.5316 21.4416 30.521 21.2626 30.521 21.0731C30.5105 20.3362 30.4366 19.5887 30.3311 18.8623C30.2256 18.1359 29.9676 17.0667 29.7988 16.3824L30.263 16.2561C30.6428 17.6352 31.038 19.5045 31.0907 21.0521C31.0907 21.2416 31.1013 21.4521 31.1013 21.6311V21.9154V21.989V22.0101V22.0312V22.0628L31.0907 22.2102C31.0802 22.4102 31.0696 22.5997 31.038 22.7892L30.9958 23.0734C30.9747 23.1682 30.9536 23.2629 30.943 23.3577C30.7848 24.1157 30.5316 24.8421 30.194 25.5054C29.8564 26.1581 29.4555 26.7582 29.0335 27.2846C28.6115 27.811 28.1684 28.2637 27.7359 28.6532C27.3033 29.0427 26.8813 29.3796 26.491 29.6533C26.1006 29.927 25.7525 30.1481 25.4571 30.3271C25.1617 30.5061 24.9296 30.6324 24.7608 30.7166C24.6764 30.7587 24.6131 30.7903 24.5709 30.8114C24.5287 30.8324 24.497 30.843 24.497 30.843L24.4654 30.8219C24.2544 30.6851 24.1383 30.4008 24.1911 30.1165H24.1911Z" fill="#B79300" stroke="#B79300" stroke-width="0.8" stroke-miterlimit="10" stroke-linejoin="round"/>
<path d="M29.8772 15.1463C30.1831 15.1463 30.4363 15.399 30.4363 15.7043C30.4363 16.0096 30.1831 16.2623 29.8772 16.2623C29.5712 16.2623 29.318 16.0096 29.318 15.7043C29.318 15.399 29.5712 15.1463 29.8772 15.1463ZM29.8772 14.9358C29.4446 14.9358 29.107 15.2832 29.107 15.7043C29.107 16.136 29.4552 16.4728 29.8772 16.4728C30.2992 16.4728 30.6473 16.1254 30.6473 15.7043C30.6473 15.2832 30.3097 14.9358 29.8772 14.9358Z" fill="#B79300"/>
<path d="M29.8772 16.3783C29.5079 16.3783 29.2125 16.0835 29.2125 15.715C29.2125 15.3465 29.5079 15.0518 29.8772 15.0518C30.2464 15.0518 30.5418 15.3465 30.5418 15.715C30.5418 16.0835 30.2464 16.3783 29.8772 16.3783Z" fill="url(#paint2_radial_580_1836)"/>
<path d="M30.7535 21.2953C31.0805 21.2953 31.3548 21.5585 31.3548 21.8954C31.3548 22.2217 31.0911 22.4954 30.7535 22.4954C30.4264 22.4954 30.1521 22.2322 30.1521 21.8954C30.1627 21.5585 30.4264 21.2953 30.7535 21.2953ZM30.7535 21.0847C30.3104 21.0847 29.9411 21.4427 29.9411 21.8954C29.9411 22.3375 30.2998 22.706 30.7535 22.706C31.1966 22.706 31.5658 22.3481 31.5658 21.8954C31.5658 21.4427 31.2071 21.0847 30.7535 21.0847Z" fill="#B79300"/>
<path d="M30.7533 22.5904C30.363 22.5904 30.0465 22.2746 30.0465 21.885C30.0465 21.4955 30.363 21.1797 30.7533 21.1797C31.1437 21.1797 31.4601 21.4955 31.4601 21.885C31.4601 22.2746 31.1437 22.5904 30.7533 22.5904Z" fill="url(#paint3_radial_580_1836)"/>
<path d="M28.4947 45.2227C28.7073 45.2012 28.9197 45.1773 29.1319 45.1511C29.4356 45.1135 29.5541 44.9853 29.4749 44.6949C29.4053 44.4397 29.3367 44.1843 29.2691 43.9287C29.2575 43.8915 29.2301 43.8756 29.1869 43.8808C28.9747 43.906 28.7622 43.9288 28.5494 43.9493C28.643 43.6831 28.7332 43.4165 28.8201 43.1495C29.1218 43.1167 29.4228 43.079 29.7226 43.0361C29.808 43.0239 29.868 43.0307 29.9029 43.0572C29.9391 43.0817 29.97 43.1377 29.9956 43.2254C30.2195 43.9854 30.4528 44.7431 30.6956 45.4983C30.4357 45.6493 30.1721 45.7966 29.9051 45.9402C29.809 45.6669 29.7147 45.3931 29.622 45.1189C29.5193 45.3923 29.4128 45.6652 29.3026 45.9375C28.9549 45.98 28.6069 46.0162 28.2587 46.0464C28.34 45.7722 28.4187 45.4976 28.4947 45.2227Z" fill="#B79300"/>
<path d="M19.7473 41.8012C19.4946 41.856 19.239 41.9052 18.9803 41.9482C18.8667 42.2696 18.753 42.591 18.6393 42.9123C18.6236 42.9362 18.6312 42.9536 18.6621 42.9643C19.1178 43.1223 19.58 43.2619 20.0474 43.3843L19.709 44.6702C19.4385 44.5991 19.1693 44.5226 18.9016 44.4404C18.7386 44.6464 18.5725 44.8508 18.4031 45.0533C18.9346 45.2246 19.4714 45.3743 20.0117 45.5036C20.2062 45.3497 20.3969 45.1931 20.584 45.0342L21.0159 43.04C21.0482 42.8909 20.9746 42.8205 20.8593 42.7945C20.4174 42.6949 19.9803 42.58 19.5493 42.4489C19.6153 42.233 19.6813 42.0171 19.7473 41.8012Z" fill="#B79300"/>
<path d="M38.3032 40.4167C38.3564 40.1791 38.405 39.9419 38.449 39.7052C39.0915 39.8997 39.7536 40.0658 40.4323 40.2036C40.4659 40.2068 40.4731 40.1948 40.4529 40.1687C40.3242 39.9972 40.1954 39.8256 40.0667 39.6541C39.9689 39.7272 39.8706 39.7995 39.7717 39.8711C39.7011 39.607 39.6273 39.3442 39.5506 39.0828C39.6358 39.0195 39.7206 38.9554 39.8049 38.8908C39.8899 38.8257 39.9744 38.7599 40.0585 38.6935C40.1702 38.6054 40.272 38.6199 40.3644 38.74C40.5682 39.0025 40.7718 39.265 40.9752 39.5277C41.0151 39.5826 41.0222 39.6338 40.996 39.6813C40.8938 39.8691 40.7885 40.0562 40.6801 40.2425C41.0734 40.3235 41.472 40.3951 41.8755 40.4575C41.7838 40.7032 41.6873 40.9488 41.5859 41.1942C40.8356 41.0656 40.1026 40.9051 39.3909 40.7122C39.3509 40.7035 39.341 40.7143 39.3615 40.7445C39.5187 40.9819 39.676 41.2193 39.8331 41.4567C39.9548 41.3755 40.0757 41.2931 40.1958 41.2097C40.2891 41.441 40.3809 41.673 40.4711 41.9058C40.19 42.098 39.9047 42.2845 39.6152 42.4652C39.5717 42.4923 39.5339 42.4799 39.5018 42.4284L38.8134 41.3223C38.7813 41.2707 38.7787 41.2295 38.8054 41.1986C38.8996 41.0154 38.9906 40.8318 39.0784 40.6479C38.8169 40.5753 38.5585 40.4982 38.3032 40.4167L38.3032 40.4167Z" fill="#B79300"/>
<path d="M34.2059 44.9984L33.7769 43.6126L33.7546 43.5405C33.7573 43.5251 33.7724 43.5078 33.7997 43.4883C34.0392 43.3493 34.2751 43.2064 34.5073 43.0596L34.99 44.4303C34.7337 44.624 34.4722 44.8134 34.2059 44.9984Z" fill="#B79300"/>
<path d="M33.5514 42.1721C33.821 42.0862 34.0886 41.995 34.354 41.8984C34.7063 41.7702 35.0547 41.6323 35.3985 41.4846C35.6332 41.3837 35.8046 41.448 35.9133 41.6879L36.8252 43.7008C36.5717 43.922 36.312 44.1384 36.0465 44.35L35.2826 42.4497C35.2625 42.3997 35.2186 42.3884 35.1511 42.415C34.6282 42.6214 34.097 42.8067 33.5592 42.9719C33.5593 42.7049 33.5567 42.4383 33.5514 42.1721Z" fill="#B79300"/>
<path d="M30.9939 45.7708L30.7423 44.3389L30.7293 44.2644C30.7339 44.2495 30.7511 44.2341 30.7807 44.2182C31.0361 44.1102 31.2888 43.9984 31.5386 43.883L31.8385 45.3071C31.561 45.4661 31.2793 45.6206 30.9939 45.7708Z" fill="#B79300"/>
<path d="M30.7008 42.8781C30.9816 42.8268 31.2612 42.7708 31.5393 42.7098C31.9085 42.6289 32.2751 42.5394 32.6386 42.4408C32.8868 42.3735 33.0481 42.4616 33.1217 42.7138L33.7399 44.8317C33.4609 45.0152 33.1768 45.1939 32.888 45.3677L32.3892 43.3808C32.3761 43.3285 32.3341 43.3113 32.2634 43.3287C31.7158 43.4627 31.1629 43.5776 30.6061 43.6744C30.64 43.4088 30.6716 43.1434 30.7008 42.8781Z" fill="#B79300"/>
<path d="M40.696 38.1722C40.8034 38.4166 40.9086 38.6623 41.0116 38.9093C41.3504 38.6279 41.6817 38.337 42.0055 38.0375C42.0224 38.0219 42.0392 38.0064 42.0559 37.9908C42.1005 37.9493 42.1424 37.9493 42.1818 37.9913L42.7117 38.5549C42.8574 38.7099 42.9768 38.8317 43.0635 38.9131C42.6841 39.268 42.2943 39.612 41.8942 39.944C41.9716 40.1876 42.0465 40.4325 42.1189 40.6786C42.8638 40.0757 43.574 39.4328 44.248 38.7566C44.1596 38.5091 44.0687 38.263 43.9753 38.0186C43.8576 38.1396 43.7388 38.2596 43.6188 38.3785C43.3141 38.6804 43.6231 38.1873 43.3908 37.9563L42.3761 36.9477C42.2622 36.8345 42.1337 36.8498 42.0451 36.9371C41.6099 37.366 41.16 37.7785 40.696 38.1722L40.696 38.1722Z" fill="#B79300"/>
<path d="M44.4662 38.5345C44.3775 38.2954 44.2864 38.0578 44.1931 37.8217C44.5556 37.441 44.907 37.0503 45.2471 36.6507C44.9815 36.7014 44.5764 36.7119 44.1054 36.7312C43.9753 36.7343 43.7273 36.7165 43.3769 36.67C43.2639 36.7912 43.1497 36.9114 43.0345 37.0305C42.9366 36.763 42.8356 36.4974 42.7316 36.2339C42.8859 36.07 43.0381 35.904 43.1883 35.7361C43.2233 35.697 43.2729 35.6923 43.3374 35.7221C43.6241 35.8459 43.9107 35.9133 44.1979 35.9219C44.3533 35.9246 44.5742 35.9126 44.8557 35.8813C44.9155 35.8777 44.919 35.854 44.8666 35.8108L44.4411 35.4596C44.3772 35.5367 44.3129 35.6134 44.2481 35.6898C44.1207 35.4436 43.9911 35.1994 43.8592 34.957C43.9967 34.7913 44.1322 34.624 44.2659 34.4552C44.3582 34.3386 44.4627 34.327 44.5806 34.4224C44.8278 34.6265 45.0747 34.8308 45.3215 35.0354C45.2559 35.3084 45.1857 35.5819 45.1108 35.8558C45.4034 35.8242 45.7357 35.7806 46.0775 35.6941C46.1644 35.9353 46.2489 36.1783 46.3308 36.4232C45.7456 37.1544 45.1236 37.8603 44.4662 38.5345L44.4662 38.5345Z" fill="#B79300"/>
<path d="M26.1781 46.1519C26.2142 45.9057 26.2493 45.6595 26.2833 45.4133C26.3328 45.4123 26.3823 45.4112 26.4317 45.4099C26.6579 45.405 26.8843 45.3976 27.1107 45.3877L27.0509 44.0551C26.9075 44.0615 26.764 44.067 26.6205 44.0714C26.6585 43.8144 26.6955 43.5573 26.7312 43.3001C27.0429 43.2887 27.3543 43.2727 27.6652 43.2517C27.7857 43.2435 27.8779 43.2904 27.8893 43.4429L28.0538 45.6423C27.9167 45.7954 27.7774 45.9476 27.6362 46.0988C27.2401 46.1221 26.8443 46.1378 26.449 46.146C26.3588 46.1484 26.2685 46.1504 26.1781 46.1519L26.1781 46.1519Z" fill="#B79300"/>
<path d="M17.2285 42.3951C17.3746 42.1805 17.5188 41.9651 17.6612 41.7487C17.9006 41.8547 18.1427 41.9547 18.3872 42.049C18.5681 42.1186 18.6292 42.2375 18.5659 42.4106L18.5569 42.435C18.4335 42.7732 18.3101 43.1114 18.1867 43.4497C17.8804 43.4415 17.5719 43.4254 17.2614 43.4009L17.6143 42.5629C17.485 42.5085 17.3564 42.4526 17.2285 42.3951L17.2285 42.3951Z" fill="#B79300"/>
<path d="M14.2331 39.8108C13.9916 39.9552 13.7475 40.0969 13.5011 40.236C13.6052 40.3099 13.7099 40.3829 13.8151 40.4552C13.4725 41.0801 13.135 41.7081 12.8028 42.3392C13.3162 42.6709 13.8426 42.9865 14.3822 43.2829C14.8963 43.5663 15.3059 43.6698 15.5805 43.623C15.7827 43.5927 15.9973 43.438 16.223 43.1589C16.5881 42.7109 16.9443 42.257 17.2912 41.7972C17.3029 41.7796 17.3119 41.7637 17.3185 41.7495C17.3581 41.6641 17.3255 41.5978 17.222 41.5489C16.9564 41.4236 16.6935 41.2916 16.4331 41.1535C16.2432 41.3421 16.0508 41.5288 15.856 41.7137C15.9678 41.7747 16.0802 41.8347 16.193 41.8936C15.948 42.1688 15.6991 42.4413 15.4465 42.7111C15.3874 42.782 15.3234 42.8156 15.2543 42.8117C15.1627 42.8151 15.0228 42.7687 14.8369 42.6715C14.5232 42.508 14.2133 42.3374 13.9074 42.1605C13.9702 42.0467 14.0331 41.9329 14.0961 41.8192C14.3057 41.9369 14.5169 42.0516 14.7297 42.163C14.8309 42.2161 14.9218 42.2179 15 42.1726C15.4153 41.8017 15.8212 41.4233 16.2168 41.037C15.9396 40.8856 15.6654 40.7273 15.3941 40.5629C15.1622 40.7214 14.9273 40.877 14.6895 41.0299C14.7974 41.0976 14.9059 41.1643 15.0149 41.2302C15.0166 41.2294 15.0183 41.2286 15.02 41.2278C14.889 41.3437 14.7571 41.4588 14.6243 41.5732C14.4957 41.6733 14.4013 41.6496 14.2474 41.5574C14.4506 41.1812 14.6551 40.8057 14.8609 40.4311C14.9176 40.333 14.8947 40.2516 14.7933 40.1857C14.6051 40.0635 14.4184 39.9385 14.2331 39.8108L14.2331 39.8108Z" fill="#B79300"/>
<path d="M12.1675 38.2409C12.2695 38.3256 12.372 38.4097 12.4749 38.493C12.6234 38.6133 12.7728 38.7321 12.9233 38.8494C13.0737 38.9665 13.225 39.0821 13.3774 39.1961C13.5856 39.3518 13.615 39.5341 13.4597 39.7468L12.1557 41.5336C11.8416 41.4269 11.5286 41.3144 11.2171 41.1967L12.4777 39.5775C12.5091 39.5372 12.4996 39.4959 12.4497 39.4535C12.4469 39.4511 12.4439 39.4487 12.4408 39.4463C12.1203 39.196 11.8047 38.9395 11.4935 38.6773C11.7194 38.5332 11.9441 38.3877 12.1675 38.2409L12.1675 38.2409Z" fill="#B79300"/>
<path d="M23.0804 46.0857L23.2274 44.6384L23.235 44.5631C23.2435 44.55 23.2643 44.5398 23.2972 44.5325C23.5727 44.4977 23.8467 44.458 24.1189 44.4137L24.024 45.8686C23.7129 45.9469 23.3983 46.0194 23.0804 46.0857Z" fill="#B79300"/>
<path d="M23.583 43.2184C23.8664 43.2442 24.1507 43.2647 24.4356 43.2803C24.8137 43.3009 25.1929 43.3128 25.5723 43.3164C25.8316 43.3188 25.9637 43.4481 25.9657 43.7113L25.9816 45.9223C25.6648 46.0236 25.344 46.1194 25.0193 46.2092L25.0754 44.1564C25.0768 44.1023 25.0409 44.0745 24.9679 44.0721C24.4026 44.0542 23.838 44.0174 23.2763 43.9603C23.3811 43.7137 23.4833 43.4664 23.583 43.2184Z" fill="#B79300"/>
<path d="M9.02904 34.3313C8.7706 34.2425 8.5119 34.1512 8.25309 34.0578C8.00052 34.2886 7.74794 34.5195 7.49535 34.7503C7.4701 34.764 7.46875 34.7831 7.49136 34.8075C7.82407 35.1671 8.16087 35.5228 8.50238 35.8735L7.54402 36.8028C7.35429 36.608 7.16625 36.4118 6.97977 36.2146C6.7375 36.316 6.49463 36.4165 6.25122 36.5161C6.61165 36.9012 6.9784 37.2828 7.35216 37.6596C7.59455 37.6262 7.8363 37.5912 8.0773 37.5547L9.52077 36.104C9.62863 35.9956 9.60296 35.8945 9.5164 35.8079C9.18502 35.4764 8.85784 35.1394 8.53425 34.7979C8.69919 34.6424 8.86412 34.4868 9.02906 34.3313L9.02904 34.3313Z" fill="#B79300"/>
<path d="M9.60144 36.4533C9.84815 36.4511 10.0941 36.4467 10.339 36.4401C10.3012 37.1188 10.2793 37.8028 10.277 38.4931C10.2804 38.5265 10.2935 38.5311 10.3153 38.5063C10.4584 38.3462 10.6016 38.1862 10.7448 38.0261C10.653 37.9444 10.5617 37.8621 10.4707 37.7795C10.7161 37.6568 10.9604 37.5326 11.2033 37.4068C11.2841 37.479 11.3651 37.5509 11.4464 37.6224C11.5283 37.6944 11.6105 37.7659 11.693 37.8371C11.8026 37.9316 11.8077 38.035 11.7067 38.1478C11.4861 38.3965 11.2654 38.645 11.0446 38.8934C10.998 38.9428 10.9489 38.9593 10.8974 38.9427C10.6938 38.8781 10.4903 38.8114 10.2868 38.7427C10.2828 39.1423 10.2854 39.5441 10.2953 39.9482C10.039 39.9063 9.78238 39.8614 9.52545 39.8138C9.51575 39.063 9.52978 38.3201 9.56343 37.5841C9.56331 37.5432 9.55054 37.5359 9.52542 37.5625C9.32752 37.7683 9.1296 37.974 8.93165 38.1797C9.036 38.2784 9.14088 38.3767 9.24631 38.4745C9.03994 38.6154 8.83294 38.7556 8.62532 38.8951C8.38396 38.6697 8.14558 38.4418 7.91002 38.2119C7.87467 38.1774 7.87844 38.1384 7.92118 38.095L8.83776 37.1635C8.88049 37.12 8.92006 37.1076 8.95644 37.1261C9.15689 37.174 9.35717 37.2203 9.55724 37.265C9.56943 36.9935 9.58424 36.723 9.60144 36.4533Z" fill="#B79300"/>
<defs>
<radialGradient id="paint0_radial_580_1836" cx="0" cy="0" r="1" gradientUnits="userSpaceOnUse" gradientTransform="translate(29.4534 15.4777) rotate(84.7245) scale(1.51552 1.63211)">
<stop stop-color="#FFCC00"/>
<stop offset="1" stop-color="#B79300"/>
</radialGradient>
<radialGradient id="paint1_radial_580_1836" cx="0" cy="0" r="1" gradientUnits="userSpaceOnUse" gradientTransform="translate(30.7185 21.6578) rotate(95.7868) scale(1.04082 1.20269)">
<stop stop-color="#FFCC00"/>
<stop offset="1" stop-color="#B79300"/>
</radialGradient>
<radialGradient id="paint2_radial_580_1836" cx="0" cy="0" r="1" gradientUnits="userSpaceOnUse" gradientTransform="translate(29.4534 15.4777) rotate(84.7245) scale(1.51552 1.63211)">
<stop stop-color="#FFCC00"/>
<stop offset="1" stop-color="#B79300"/>
</radialGradient>
<radialGradient id="paint3_radial_580_1836" cx="0" cy="0" r="1" gradientUnits="userSpaceOnUse" gradientTransform="translate(30.7185 21.6578) rotate(95.7868) scale(1.04082 1.20269)">
<stop stop-color="#FFCC00"/>
<stop offset="1" stop-color="#B79300"/>
</radialGradient>
</defs>
</svg>
