<svg width="116" height="24" viewBox="0 0 116 24" fill="none" xmlns="http://www.w3.org/2000/svg">
<g clip-path="url(#clip0_580_1784)">
<path d="M116.001 10.8576V8.88157H113.467V5.80961L113.382 5.83505L111.003 6.54024L110.956 6.55404V8.88167H107.2V7.58498C107.2 6.9812 107.339 6.51915 107.614 6.21101C107.887 5.90657 108.277 5.75179 108.775 5.75179C109.133 5.75179 109.503 5.83342 109.876 5.99439L109.969 6.03482V3.95381L109.925 3.93816C109.577 3.81708 109.104 3.7561 108.518 3.7561C107.779 3.7561 107.108 3.91186 106.522 4.22054C105.936 4.52966 105.476 4.97095 105.153 5.53202C104.831 6.09243 104.668 6.73969 104.668 7.45597V8.88157H102.904V10.8576H104.668V19.1822H107.2V10.8576H110.956V16.1477C110.956 18.3264 112.017 19.4305 114.109 19.4305C114.453 19.4305 114.815 19.3915 115.184 19.3151C115.561 19.2366 115.817 19.1582 115.968 19.0746L116.001 19.0554V17.0612L115.898 17.1271C115.76 17.2158 115.589 17.2883 115.389 17.3422C115.187 17.3971 115.019 17.4246 114.888 17.4246C114.398 17.4246 114.036 17.2967 113.811 17.0442C113.583 16.7894 113.468 16.3439 113.468 15.7207V10.8576H116.001ZM97.2487 17.4249C96.3296 17.4249 95.6049 17.1297 95.0942 16.5482C94.5804 15.9638 94.3201 15.1306 94.3201 14.0719C94.3201 12.9797 94.5804 12.1248 95.0945 11.5301C95.6055 10.9392 96.3232 10.6393 97.2281 10.6393C98.1061 10.6393 98.8051 10.9257 99.3058 11.491C99.809 12.0593 100.064 12.9073 100.064 14.0122C100.064 15.1308 99.8242 15.99 99.3507 16.5648C98.8804 17.1352 98.1732 17.4249 97.2487 17.4249ZM97.3613 8.63342C95.6077 8.63342 94.2149 9.13112 93.2218 10.1127C92.2294 11.0944 91.7263 12.453 91.7263 14.1509C91.7263 15.7637 92.2174 17.0609 93.1863 18.006C94.1551 18.9514 95.4736 19.4303 97.1049 19.4303C98.8047 19.4303 100.17 18.9256 101.162 17.9305C102.155 16.9364 102.658 15.5907 102.658 13.9324C102.658 12.2944 102.186 10.9875 101.255 10.0487C100.323 9.10949 99.0132 8.63342 97.3613 8.63342ZM87.6434 8.63342C86.4506 8.63342 85.4639 8.92896 84.7101 9.51165C83.9518 10.0978 83.5671 10.8666 83.5671 11.7969C83.5671 12.2805 83.6502 12.71 83.8135 13.0743C83.9779 13.4399 84.2323 13.7617 84.5703 14.0318C84.9057 14.2997 85.4235 14.5804 86.1095 14.8659C86.6863 15.0958 87.1164 15.2902 87.3897 15.4435C87.6567 15.5937 87.8463 15.7447 87.9533 15.8917C88.0573 16.0356 88.1101 16.2326 88.1101 16.4756C88.1101 17.1677 87.5751 17.5044 86.4741 17.5044C86.0658 17.5044 85.6 17.4218 85.0897 17.259C84.5831 17.0986 84.105 16.8638 83.6721 16.5627L83.5669 16.4897V18.8512L83.6055 18.8686C83.9638 19.0288 84.4156 19.1639 84.948 19.2702C85.4795 19.3766 85.9623 19.4307 86.3818 19.4307C87.6762 19.4307 88.7185 19.1338 89.4791 18.5476C90.2445 17.9574 90.6324 17.1705 90.6324 16.208C90.6324 15.5137 90.4236 14.9183 90.012 14.4381C89.6032 13.9618 88.8937 13.5245 87.9041 13.138C87.1157 12.8315 86.6106 12.5771 86.4022 12.3818C86.2013 12.1931 86.0993 11.9262 86.0993 11.5883C86.0993 11.2888 86.2252 11.0488 86.4837 10.8544C86.7441 10.6591 87.1067 10.5598 87.5614 10.5598C87.9833 10.5598 88.415 10.6243 88.8443 10.7508C89.2733 10.8774 89.6501 11.0468 89.9646 11.2541L90.0681 11.3226V9.08243L90.0284 9.06591C89.7382 8.94537 89.3555 8.84222 88.8907 8.75853C88.4281 8.67538 88.0084 8.63342 87.6434 8.63342ZM76.9655 17.4249C76.0466 17.4249 75.3217 17.1297 74.8111 16.5482C74.2972 15.9638 74.0373 15.1308 74.0373 14.0719C74.0373 12.9797 74.2975 12.1248 74.8117 11.5301C75.3223 10.9392 76.0399 10.6393 76.9452 10.6393C77.8229 10.6393 78.5219 10.9257 79.0227 11.491C79.526 12.0593 79.7813 12.9073 79.7813 14.0122C79.7813 15.1308 79.541 15.99 79.0675 16.5648C78.5972 17.1352 77.8904 17.4249 76.9655 17.4249ZM77.0784 8.63342C75.3244 8.63342 73.9315 9.13112 72.939 10.1127C71.9466 11.0944 71.4431 12.453 71.4431 14.1509C71.4431 15.7644 71.9346 17.0609 72.9034 18.006C73.8722 18.9514 75.1906 19.4303 76.8219 19.4303C78.5215 19.4303 79.8869 18.9256 80.8795 17.9305C81.8718 16.9364 82.3749 15.5907 82.3749 13.9324C82.3749 12.2944 81.9029 10.9875 80.9716 10.0487C80.0399 9.10949 78.73 8.63342 77.0784 8.63342ZM67.5991 10.6654V8.88157H65.0976V19.1819H67.5991V13.9129C67.5991 13.017 67.8088 12.2809 68.2227 11.7249C68.6312 11.1756 69.1757 10.8973 69.8404 10.8973C70.0658 10.8973 70.3187 10.9332 70.5926 11.0044C70.8637 11.0752 71.0601 11.152 71.1759 11.2329L71.281 11.3067V8.86396L71.2405 8.84711C71.0076 8.75125 70.678 8.70288 70.261 8.70288C69.6324 8.70288 69.0699 8.89852 68.588 9.28372C68.1651 9.6223 67.8594 10.0865 67.6257 10.6654H67.5991ZM60.618 8.63342C59.4704 8.63342 58.4468 8.87178 57.5761 9.34166C56.7036 9.81262 56.0289 10.485 55.5698 11.34C55.1128 12.1929 54.8807 13.1891 54.8807 14.3002C54.8807 15.2734 55.1057 16.1665 55.5504 16.9537C55.9953 17.7421 56.6251 18.3589 57.4222 18.7867C58.2183 19.214 59.1383 19.4306 60.157 19.4306C61.3458 19.4306 62.3608 19.2004 63.1745 18.7464L63.2074 18.7282V16.5083L63.1023 16.5827C62.7336 16.8428 62.3217 17.0504 61.8785 17.2C61.4363 17.3494 61.0333 17.4249 60.6798 17.4249C59.6983 17.4249 58.9103 17.1275 58.3384 16.541C57.7652 15.9537 57.4745 15.1291 57.4745 14.0914C57.4745 13.0472 57.7776 12.2013 58.3749 11.5772C58.9705 10.955 59.7599 10.6393 60.7211 10.6393C61.5433 10.6393 62.3445 10.909 63.1025 11.4416L63.2074 11.5154V9.17645L63.1735 9.15797C62.8883 9.0033 62.4992 8.87559 62.0163 8.77874C61.5353 8.68212 61.0649 8.63342 60.618 8.63342ZM53.1579 8.88167H50.6565V19.1819H53.1579V8.88167ZM51.9328 4.49368C51.5211 4.49368 51.162 4.62944 50.867 4.89845C50.5707 5.16823 50.4205 5.50789 50.4205 5.90874C50.4205 6.30329 50.5689 6.63676 50.8624 6.89936C51.1539 7.16119 51.5141 7.29391 51.9329 7.29391C52.3516 7.29391 52.7131 7.16119 53.0081 6.89979C53.305 6.63676 53.4556 6.3034 53.4556 5.90874C53.4556 5.52191 53.3091 5.18572 53.0204 4.90932C52.7319 4.63346 52.3658 4.49368 51.9328 4.49368ZM45.6915 8.1217V19.1819H48.2443V4.809H44.7111L40.2201 15.4848L35.8618 4.809H32.1847V19.1818H34.5837V8.12062H34.6661L39.2683 19.1819H41.0787L45.6091 8.1217H45.6915Z" fill="#565555"/>
<path d="M11.7676 11.4058H0V0.00756836H11.7676V11.4058Z" fill="#F1511B"/>
<path d="M24.7609 11.4044H12.9936V0.00610352H24.7609V11.4044Z" fill="#80CC28"/>
<path d="M11.7672 23.9939H0V12.5957H11.7672V23.9939Z" fill="#00ADEF"/>
<path d="M24.7609 23.9939H12.9936V12.5957H24.7609V23.9939Z" fill="#FBBC09"/>
</g>
<defs>
<clipPath id="clip0_580_1784">
<rect width="116" height="24" fill="white"/>
</clipPath>
</defs>
</svg>
