<svg width="105" height="22" viewBox="0 0 105 22" fill="none" xmlns="http://www.w3.org/2000/svg">
<g clip-path="url(#clip0_580_1762)">
<rect width="105" height="22" fill="white"/>
<path d="M11.5608 0.0957031C5.20025 0.0957031 0.0512085 4.97396 0.0512085 11.0001C0.0512085 17.0261 5.20025 21.9044 11.5608 21.9044C17.9214 21.9044 23.0705 17.0261 23.0705 11.0001C23.0705 4.97396 17.9214 0.0957031 11.5608 0.0957031ZM11.5608 19.3058C6.71467 19.3058 2.794 15.5914 2.794 11.0001C2.794 6.40875 6.71467 2.69425 11.5608 2.69425C16.407 2.69425 20.3277 6.40875 20.3277 11.0001C20.3277 15.5914 16.407 19.3058 11.5608 19.3058Z" fill="#2456A6"/>
<path d="M16.5586 8.17787C16.4912 8.05034 16.3398 7.98657 16.2052 7.98657H6.93354C6.74844 7.98657 6.58017 8.09816 6.52969 8.27353C6.47921 8.44889 6.56334 8.62425 6.71479 8.71991L11.1571 11.2866V15.9895C11.1571 16.1648 11.2917 16.3243 11.46 16.3721C11.4936 16.388 11.5273 16.388 11.561 16.388C11.7124 16.388 11.847 16.3083 11.9143 16.1967L16.5417 8.59237C16.6427 8.44889 16.6427 8.30541 16.5586 8.17787Z" fill="#2456A6"/>
<path d="M37.5744 14.0609C37.5744 15.129 37.1706 16.0377 36.3461 16.7869C35.5215 17.5362 34.5456 17.9188 33.4013 17.9188H32.8292C31.6682 17.9188 30.6754 17.5362 29.8509 16.7869C29.0263 16.0377 28.6225 15.113 28.6225 14.0609V7.46085C28.6225 6.39274 29.0263 5.49998 29.8509 4.75071C30.6754 4.00143 31.6682 3.63477 32.8292 3.63477H33.4013C34.5624 3.63477 35.5215 4.00143 36.3461 4.75071C37.1706 5.49998 37.5744 6.40868 37.5744 7.46085V14.0609ZM34.4446 7.87535C34.4446 6.98259 33.822 6.31303 33.1489 6.31303C32.4759 6.31303 31.8028 6.99853 31.8028 7.87535V13.7101C31.8028 14.6029 32.459 15.2406 33.1489 15.2406C33.8725 15.2406 34.4446 14.6029 34.4446 13.7101V7.87535Z" fill="#2456A6"/>
<path d="M48.848 8.41716C48.848 9.48527 48.4441 10.378 47.6364 11.1273C46.8456 11.8766 45.8528 12.2432 44.7085 12.2432H43.4129C43.2446 12.2432 43.1773 12.307 43.1773 12.4664V17.0577C43.1773 17.4244 42.8239 17.7432 42.4033 17.7432H40.8215C40.4008 17.7432 40.098 17.4244 40.098 17.0577V4.49542C40.098 4.06499 40.3335 3.8418 40.8215 3.8418H44.6917C45.8528 3.8418 46.8456 4.22441 47.6196 4.97368C48.4273 5.72296 48.8311 6.63165 48.8311 7.68383V8.41716H48.848ZM45.7518 7.49252C45.7518 6.88672 45.1797 6.39252 44.5066 6.39252H43.497C43.3119 6.39252 43.2278 6.45629 43.2278 6.58382V9.5331C43.2278 9.67658 43.3119 9.74035 43.497 9.74035H44.5066C45.1797 9.74035 45.7518 9.2302 45.7518 8.62441V7.49252Z" fill="#2456A6"/>
<path d="M58.9963 17.0103C58.9963 17.377 58.6261 17.7277 58.2055 17.7277H51.9963C51.5756 17.7277 51.2054 17.377 51.2054 17.0103V4.52769C51.2054 4.12914 51.542 3.8103 51.9963 3.8103H58.0204C58.441 3.8103 58.8112 4.12914 58.8112 4.52769V5.7074C58.8112 6.07407 58.441 6.42479 58.0204 6.42479H54.554C54.3689 6.42479 54.2848 6.48857 54.2848 6.64799V8.94364C54.2848 9.08712 54.3689 9.15088 54.554 9.15088H57.179C57.5997 9.15088 57.9699 9.46972 57.9699 9.86827V11.0161C57.9699 11.3828 57.5997 11.7335 57.179 11.7335H54.554C54.3689 11.7335 54.2848 11.8132 54.2848 11.9726V14.8103C54.2848 14.9697 54.3689 15.0494 54.554 15.0494H58.2055C58.6261 15.0494 58.9963 15.4002 58.9963 15.7668V17.0103Z" fill="#2456A6"/>
<path d="M70.6395 17.0422C70.6395 17.4089 70.3029 17.7277 69.8823 17.7277H68.452C68.1154 17.7277 67.863 17.5364 67.6779 17.1697L64.3967 10.4422V17.0422C64.3967 17.4089 64.0433 17.7277 63.6226 17.7277H62.125C61.7044 17.7277 61.4015 17.4089 61.4015 17.0422V4.51175C61.4015 4.1132 61.6875 3.8103 62.125 3.8103H63.6226C64.0097 3.8103 64.2789 4.01755 64.4808 4.4161L67.6611 10.9045V4.52769C67.6611 4.12914 68.0313 3.8103 68.452 3.8103H69.8823C70.3029 3.8103 70.6395 4.12914 70.6395 4.52769V17.0422Z" fill="#2456A6"/>
<path d="M82.0819 17.0101C82.0819 17.3768 81.7454 17.7275 81.3079 17.7275H81.0387C80.6853 17.7275 80.3992 17.4565 80.1805 16.8985C80.1805 16.9145 80.1805 16.9304 80.1637 16.9464C79.6252 17.584 78.868 17.9188 77.8752 17.9188H77.5387C76.243 17.9188 75.1829 17.5203 74.392 16.7391C73.6012 15.958 73.1973 15.0014 73.1973 13.8695V7.63622C73.1973 6.53622 73.618 5.59564 74.4593 4.81448C75.3175 4.03332 76.344 3.63477 77.5387 3.63477H77.7069C78.9017 3.63477 79.9281 4.03332 80.7526 4.81448C81.594 5.59564 82.0146 6.53622 82.0146 7.63622V8.19419C82.0146 8.59274 81.6613 8.91158 81.2406 8.91158H79.8271C79.4065 8.91158 79.0363 8.52897 79.0363 8.19419V8.00289C79.0363 7.07825 78.38 6.34491 77.6565 6.34491C76.9161 6.34491 76.2767 7.07825 76.2767 8.00289V13.5985C76.2767 14.5869 76.7983 15.2087 77.6565 15.2087C78.5651 15.2087 79.0363 14.6666 79.0363 13.5985V13.0406C79.0363 12.8811 78.9521 12.8174 78.7839 12.8174H78.0267C77.6396 12.8174 77.2358 12.4826 77.2358 12.084V11.1753C77.2358 10.8087 77.5892 10.458 78.0267 10.458H81.3079C81.7454 10.458 82.0819 10.8406 82.0819 11.1753V17.0101Z" fill="#2456A6"/>
<path d="M93.5567 14.0609C93.5567 15.129 93.1528 16.0377 92.3283 16.7869C91.5038 17.5362 90.5278 17.9188 89.3836 17.9188H88.8115C87.6504 17.9188 86.6576 17.5362 85.8331 16.7869C85.0086 16.0377 84.6047 15.113 84.6047 14.0609V7.46085C84.6047 6.39274 85.0086 5.49998 85.8331 4.75071C86.6576 4.00143 87.6504 3.63477 88.8115 3.63477H89.3836C90.5447 3.63477 91.5038 4.00143 92.3283 4.75071C93.1528 5.49998 93.5567 6.40868 93.5567 7.46085V14.0609ZM90.41 7.87535C90.41 6.98259 89.7874 6.31303 89.1144 6.31303C88.4413 6.31303 87.7682 6.99853 87.7682 7.87535V13.7101C87.7682 14.6029 88.4245 15.2406 89.1144 15.2406C89.8379 15.2406 90.41 14.6029 90.41 13.7101V7.87535Z" fill="#2456A6"/>
<path d="M102.156 17.0902C102.072 17.5206 101.802 17.7279 101.382 17.7279H99.1942C98.8072 17.7279 98.5548 17.5206 98.4538 17.0902L95.6101 4.63946C95.5933 4.59163 95.5933 4.51192 95.5933 4.4641C95.5933 4.03366 95.812 3.82642 96.2327 3.82642H97.7639C98.1846 3.82642 98.4202 4.01772 98.5212 4.38439L100.322 12.7061L102.088 4.38439C102.173 4.01772 102.442 3.82642 102.862 3.82642H104.377C104.798 3.82642 105 4.01772 105 4.40033C105 4.4641 104.983 4.55975 104.966 4.63946L102.156 17.0902Z" fill="#2456A6"/>
</g>
<defs>
<clipPath id="clip0_580_1762">
<rect width="105" height="22" fill="white"/>
</clipPath>
</defs>
</svg>
