<svg width="88" height="40" viewBox="0 0 88 40" fill="none" xmlns="http://www.w3.org/2000/svg">
<g clip-path="url(#clip0_580_1701)">
<rect width="88" height="40" fill="white"/>
<path d="M23.3245 18.7913C20.1911 18.7913 19.9421 16.3585 19.9421 15.6421C19.9421 14.7913 20.1325 13.2092 22.1678 12.4481C24.203 11.6869 24.6423 11.5973 26.0919 11.1346V10.7764C26.0919 10.06 26.0919 9.92566 25.9308 9.46298C25.6819 8.64208 24.8912 8.08984 23.7931 8.08984C22.7535 8.08984 21.8603 8.68686 21.4503 9.56746L20.8646 9.20924C21.216 7.89581 22.5485 6.58238 24.8327 6.58238C26.414 6.58238 27.5122 7.04507 28.1564 8.05999C28.6396 8.88089 28.6982 9.98536 28.6982 11.1048C28.6982 12.1197 28.6396 13.2391 28.6396 14.1495C28.6396 14.7466 28.5811 15.3286 28.5811 15.657C28.5811 16.4779 28.7421 17.1346 29.3864 17.1346C29.6792 17.1346 29.7378 17.0301 29.9721 16.8809L30.3235 17.3436C29.7378 18.1645 29.035 18.8212 27.8782 18.8212C26.9851 18.8212 26.3408 18.3585 26.0772 17.6122C25.7112 18.1346 24.7594 18.7913 23.3245 18.7913ZM26.0919 12.5973C24.5545 13.06 23.998 13.3137 23.5588 13.5525C22.8559 13.9107 22.5631 14.5675 22.5631 15.4182C22.5631 16.0749 22.812 17.1346 24.3055 17.1346C24.7887 17.1346 25.4916 17.0301 26.1358 16.5824V12.5824H26.0919V12.5973ZM0.219012 18.1645C0.219012 16.9854 0.219012 15.9854 0.116516 14.7764H0.819345C0.819345 15.5376 1.00969 16.0898 1.36111 16.4481C1.8443 17.0003 3.00104 17.3585 4.04064 17.3585C6.22234 17.3585 7.26194 16.5078 7.26194 14.6719C7.26194 13.1048 6.32484 12.4481 5.03632 11.5227L4.84597 11.3585L3.45495 10.4033C1.52217 9.08984 0.5265 8.07492 0.5265 6.00029C0.5265 4.98536 0.921841 1.64208 5.73915 1.64208C6.98374 1.64208 8.5651 1.80626 9.51685 1.94059C9.51685 2.10477 9.45828 2.85104 9.45828 3.50775C9.45828 4.26895 9.45828 4.46298 9.51685 5.37342H8.93116C8.93116 4.55253 8.68224 4.05999 8.34547 3.70178C7.89156 3.2391 6.8666 2.98537 5.76843 2.98537C3.19139 2.98537 2.89855 4.2988 2.89855 5.31372C2.89855 6.68686 3.60137 7.17939 5.12417 8.19432L6.8666 9.37343C8.34547 10.3884 9.73648 11.3436 9.73648 13.8809C9.73648 18.1346 5.81236 18.5824 4.17242 18.5824C2.66427 18.7913 1.40504 18.5675 0.219012 18.1645ZM31.407 7.34357C31.9927 7.40328 32.8859 7.34358 33.7498 7.1794C34.4965 7.01522 34.7455 6.92566 35.2872 6.68686L35.5362 6.85104V7.76148C36.1218 7.2988 37.2786 6.64208 38.9185 6.64208C41.0124 6.64208 42.3594 7.65701 42.7401 9.43313C42.8426 9.89581 42.9012 10.9406 42.9012 11.5675V15.0152C42.9012 16.9406 43.0037 17.5078 43.3551 17.851C43.5455 18.0152 43.9408 18.2092 44.5119 18.2092V18.7615C43.7651 18.7018 42.418 18.657 41.642 18.657C40.6024 18.657 39.4163 18.7167 38.7721 18.7615V18.2092C39.3578 18.1495 39.7092 17.9555 39.9288 17.8063C40.2802 17.448 40.3242 16.7913 40.3827 15.3137C40.3827 14.851 40.4413 13.9406 40.4413 13.2839C40.4413 12.4331 40.4413 11.5078 40.3388 10.5973C40.1777 9.08984 39.4017 8.37343 37.8936 8.37343C36.854 8.37343 36.2097 8.62716 35.7119 8.86596V15.0451C35.7119 16.9704 35.8144 17.5376 36.1658 17.8809C36.3561 18.0451 36.81 18.2391 37.2639 18.2391V18.7913C36.3268 18.7316 35.1701 18.6869 34.438 18.6869C32.9005 18.6869 32.4027 18.7466 31.5095 18.7913V18.2092C31.9927 18.2092 32.5052 18.0152 32.7541 17.7167C33.1055 17.3137 33.1495 16.2988 33.1495 14.3286V10.8212C33.1495 9.34357 33.0909 8.74656 32.9005 8.43313C32.7395 8.17939 32.3588 7.97044 31.5535 7.97044V7.31372H31.451V7.34357H31.407ZM45.7711 18.1346C46.2543 18.1346 46.7668 17.9704 47.0157 17.6421C47.3671 17.2391 47.411 16.2242 47.411 14.254V8.3585H45.9322V7.70178C46.5764 7.44805 47.1182 7.14955 47.411 6.88089C47.411 5.82119 47.4696 4.49283 47.6014 3.73163C48.0553 1.2988 49.5927 0.0898438 52.2137 0.0898438C53.3704 0.0898438 54.4393 0.492828 55.1421 1.04507L55.2007 1.2988L54.044 2.91074H53.7511C53.3558 1.95551 52.7555 1.40327 51.7159 1.40327C51.3644 1.40327 50.8812 1.50775 50.5591 1.80626C50.0759 2.2988 49.9734 3.07492 49.9734 4.59731V6.86596H52.5505V8.34357H49.9734V14.8809C49.9734 16.4481 50.032 17.2092 50.2223 17.5078C50.5152 18.0003 51.5694 18.06 52.0526 18.06V18.657C51.218 18.5973 49.8709 18.5525 48.9192 18.5525C47.4696 18.5525 46.5325 18.6122 45.7857 18.657L45.7711 18.1346ZM59.0809 18.8809C55.5668 18.8809 53.4729 16.657 53.4729 12.9107C53.4729 9.98536 55.0104 6.58238 59.3298 6.58238C62.844 6.58238 64.9378 8.80626 64.9378 12.5525C64.9378 15.4779 63.3857 18.8809 59.0809 18.8809ZM59.2273 7.94059C58.5245 7.94059 57.9827 8.13462 57.5874 8.49283C56.6503 9.31372 56.1964 10.7167 56.1964 12.7913C56.1964 13.6122 56.3574 17.5525 59.1834 17.5525C59.8862 17.5525 60.428 17.3585 60.8233 17.0003C61.7604 16.1794 62.2144 14.7764 62.2144 12.7018C62.1997 11.8958 62.0679 7.94059 59.2273 7.94059ZM66.1238 7.28387C66.9292 7.34357 67.7638 7.22417 68.6569 7.08984C69.3598 6.98536 69.8137 6.83611 70.048 6.68686L70.2383 6.79134V7.80626C70.7801 7.25402 71.6879 6.68686 72.9178 6.68686C73.811 6.68686 74.3967 6.94059 74.9531 7.40328V7.76148L73.9574 9.59731H73.4743C73.1814 9.04507 72.5811 8.5376 71.5415 8.5376C71.0583 8.5376 70.6483 8.64208 70.2969 8.89581V14.9257C70.2969 16.4928 70.3554 17.1943 70.5458 17.5078C70.8386 18.0003 71.8343 18.06 72.3761 18.0003V18.657C71.5708 18.5973 70.1944 18.5525 69.2426 18.5525C68.1445 18.5525 67.017 18.5525 66.1092 18.657V18.06C66.7535 18.0003 67.1049 17.866 67.3538 17.5675C67.7052 17.1645 67.7491 16.1943 67.7491 14.1794V10.8958C67.7491 9.4182 67.7491 8.82119 67.5002 8.50775C67.3099 8.25402 66.9145 8.10477 66.1531 8.10477V7.34357L66.1238 7.28387ZM82.3767 0.80626C83.0796 0.80626 83.9581 0.642082 85.1149 0.448052C85.7591 0.343574 86.1544 0.19432 86.3594 0.149544L86.5498 0.254021C86.4473 1.20925 86.4473 3.40328 86.4473 4.95551V14.5675C86.4473 15.9854 86.4473 16.8958 86.6376 17.1943C86.828 17.4481 87.2233 17.657 87.9847 17.657V18.254C87.238 18.254 86.4034 18.3585 85.5102 18.5078C84.9245 18.6122 84.4706 18.7018 84.2217 18.8063L83.9288 18.7018V17.6869C83.3431 18.1495 82.245 18.8063 80.7075 18.8063C77.5302 18.8063 75.4949 16.5824 75.4949 13.0898C75.4949 11.9107 75.6852 10.866 76.0806 9.89581C77.0762 7.76148 79.0676 6.55253 81.5861 6.55253C82.5232 6.55253 83.3285 6.65701 83.8117 6.74656V4.25402C83.8117 2.77641 83.8117 2.03014 83.5628 1.67193C83.4017 1.4182 83.1674 1.31372 82.3182 1.26895V0.791336H82.3767V0.80626ZM81.9668 17.1495C82.7721 17.1495 83.3139 17.0451 83.8556 16.6869V8.80626C83.6653 8.61223 82.9624 7.98536 81.5714 7.98536C79.3458 7.98536 78.2476 9.55253 78.2476 12.8063C78.2037 14.1645 78.599 17.1495 81.9668 17.1495ZM18.8 17.5078C18.4486 17.9704 17.5555 18.8809 15.6666 18.8809C13.8656 18.8809 12.8846 18.2242 12.4453 16.7466C12.255 16.1943 12.255 15.0301 12.255 14.3585C12.255 12.4928 12.255 10.9704 12.3135 9.19432V8.37343H10.7614V7.91074C11.3471 7.65701 11.801 7.4182 12.211 7.08984C13.1042 6.37342 13.6899 5.52268 14.3488 4.25402H14.832V6.88089H18.7561V8.3585H14.832V14.5376C14.832 16.4033 15.1834 17.4182 16.8673 17.4182C17.6726 17.4182 18.2144 17.1645 18.5072 16.9555L18.8 17.5078Z" fill="#8C1515"/>
<path d="M73.8398 28.5527C73.6495 28.5527 73.3859 28.6124 73.2541 28.7467C73.093 28.8512 73.0931 29.0004 73.0931 29.1049C73.0931 29.2989 73.1516 29.4631 73.2834 29.8661L74.3816 32.7915C74.5426 33.2542 74.6744 33.6124 74.733 33.8512L76.0801 29.8512C76.2411 29.3885 76.2704 29.2989 76.2704 29.09C76.2704 28.9855 76.2118 28.8959 76.1094 28.7915C75.9483 28.687 75.7579 28.5974 75.5237 28.5974V28.1348C75.6847 28.1348 76.0069 28.1348 76.1679 28.1945C76.329 28.1945 76.6218 28.2542 76.8708 28.2542C77.354 28.2542 78.0568 28.1945 78.3496 28.1945V28.6571C78.1593 28.7168 77.7054 28.5974 77.31 29.7765L74.4841 37.4631C74.0887 38.5825 73.547 39.9556 71.6142 39.9556C70.8089 39.9556 70.2671 39.7616 69.8132 39.3586V39.1646L70.516 38.3139H70.7064C70.8967 38.7765 71.292 38.9706 71.8631 38.9706C72.7563 38.9706 73.1516 38.1497 73.752 36.5377L73.913 36.0751L71.541 29.7616C71.541 29.7019 71.4824 29.5974 71.4385 29.5079C71.3799 29.3437 71.2481 29.0452 71.2481 29.0452C71.0871 28.7467 70.8528 28.6422 70.5453 28.6422V28.1795C70.9992 28.2392 71.7899 28.2392 72.1852 28.2392C72.4341 28.2392 72.8295 28.2392 73.2248 28.1795C73.4152 28.1795 73.7666 28.1198 73.9277 28.1198V28.5228H73.8691V28.5527H73.8398ZM47.5423 28.4482C48.0255 28.5079 48.5819 28.3885 49.1237 28.284C49.5776 28.1795 49.8265 28.1198 50.0168 28.0303L50.1779 28.09V28.7467C50.5293 28.3885 51.0711 28.0303 51.8618 28.0303C52.4475 28.0303 52.7989 28.1945 53.1503 28.493V28.7467L52.5646 29.9258H52.2717C52.0814 29.5676 51.73 29.2691 51.0272 29.2691C50.7343 29.2691 50.4854 29.3736 50.2218 29.5228V33.3288C50.2218 34.3437 50.2804 34.8064 50.3829 35.0004C50.5732 35.2989 51.1882 35.3586 51.5396 35.3586V35.7616C51.0564 35.7019 50.1486 35.7019 49.5483 35.7019C48.8455 35.7019 48.0987 35.7019 47.5569 35.8064V35.4034C47.9523 35.4034 48.2012 35.2392 48.3623 35.1049C48.6112 34.8512 48.6112 34.2542 48.6112 32.9258V30.7915C48.6112 29.881 48.6112 29.478 48.4501 29.284C48.3476 29.1198 48.0548 29.0303 47.6155 29.0303V28.478H47.5423V28.4482ZM14.4801 35.7915C12.3862 35.7915 11.1563 35.1348 10.7024 33.7168C10.4534 33.0004 10.4534 32.1049 10.4534 31.3885V27.3437C10.4534 26.1348 10.3949 25.9258 10.1606 25.7318C10.0581 25.6273 9.80918 25.5377 9.45776 25.478V25.0751C9.94096 25.1348 10.8049 25.1795 11.288 25.1795C12.1227 25.1795 12.6351 25.1795 13.1769 25.0751V25.5377C12.8255 25.5377 12.5912 25.6422 12.3716 25.8362C12.1227 26.09 12.1227 26.5527 12.1227 27.8661V31.4482C12.1227 33.5825 12.313 34.9557 14.6558 34.9557C17.0425 34.9557 17.1889 33.5377 17.1889 31.3736V27.4333C17.1889 26.2243 17.1303 26.0153 16.896 25.8213C16.735 25.7168 16.5007 25.6273 16.1932 25.5676V25.1646C16.6471 25.1646 17.2328 25.2243 17.8331 25.2243C18.3749 25.2243 18.9313 25.2243 19.5756 25.1198V25.5825C19.2242 25.5825 18.9899 25.687 18.7702 25.881C18.5213 26.1348 18.5213 26.5974 18.5213 27.9109V30.9556C18.5213 31.9109 18.5213 32.9855 18.2285 33.8362C17.7599 35.1348 16.5593 35.7915 14.4801 35.7915ZM28.6391 35.3288C29.0345 35.2691 29.2834 35.2243 29.4737 35.0303C29.7227 34.7765 29.7227 34.1795 29.7227 32.8512V30.7168C29.7227 29.8064 29.7227 29.3437 29.5616 29.1497C29.4591 28.9855 29.2687 28.8959 28.727 28.8512V28.3885C29.0198 28.4482 29.8252 28.3288 30.4108 28.2243C30.7037 28.1646 30.9965 28.0601 31.2162 27.9706L31.3772 28.1348C31.3187 28.6273 31.3187 29.7019 31.3187 31.1198V33.2989C31.3187 34.3139 31.3772 34.7765 31.4797 34.9706C31.6408 35.1646 31.9336 35.3288 32.3729 35.3288V35.687C31.9776 35.6273 31.2162 35.6273 30.5719 35.6273C29.8252 35.6273 29.0345 35.687 28.6391 35.7318V35.3288ZM30.4694 26.6721C29.8837 26.6721 29.5323 26.3139 29.5323 25.7616C29.5323 25.2094 29.9277 24.8064 30.528 24.8064C31.1137 24.8064 31.4651 25.1646 31.4651 25.7168C31.4504 26.3139 31.0551 26.6721 30.4694 26.6721ZM60.0321 35.3288C60.4275 35.2691 60.6764 35.2243 60.8668 35.0303C61.1157 34.7765 61.1157 34.1795 61.1157 32.8512V30.7168C61.1157 29.8064 61.1157 29.3437 60.9546 29.1497C60.8521 28.9855 60.6618 28.8959 60.12 28.8512V28.3885C60.4128 28.4482 61.2182 28.3288 61.8039 28.2243C62.0967 28.1646 62.4481 28.0601 62.6092 27.9706L62.7703 28.1348C62.7117 28.6273 62.7117 29.7019 62.7117 31.1198V33.2989C62.7117 34.3139 62.7703 34.7765 62.8727 34.9706C63.0338 35.1646 63.3267 35.3288 63.7659 35.3288V35.687C63.312 35.6273 62.5799 35.6273 61.9356 35.6273C61.1889 35.6273 60.3982 35.687 60.0029 35.7318V35.3288H60.0321ZM61.8624 26.6721C61.2767 26.6721 60.9253 26.3139 60.9253 25.7616C60.9253 25.2094 61.3207 24.8064 61.921 24.8064C62.5067 24.8064 62.8581 25.1646 62.8581 25.7168C62.8581 26.3139 62.4481 26.6721 61.8624 26.6721ZM54.0142 35.4333C54.0142 34.6721 53.9556 33.8661 53.9117 33.4631H54.3949C54.3949 33.8661 54.4974 34.2243 54.6877 34.4183C54.9806 34.7765 55.332 34.9109 55.9762 34.9109H56.0787C56.8841 34.9109 57.3233 34.5527 57.3233 33.8512C57.3233 33.2989 56.9719 33.0303 56.3862 32.6721L55.3466 32.0153C54.8049 31.6571 54.1606 31.1646 54.1606 30.09C54.1606 29.2392 54.512 28.5825 55.2002 28.2243C55.6541 27.9706 56.3569 27.9706 56.6791 27.9706C57.2648 27.9706 58.1287 28.0751 58.6118 28.1646C58.5533 28.3586 58.5533 28.881 58.5533 29.075C58.5533 29.2392 58.5533 29.9258 58.6118 30.09H58.1287C58.1287 29.7915 58.0262 29.493 57.8358 29.2392C57.6455 28.9855 57.1915 28.8362 56.6498 28.8362C55.903 28.8362 55.493 29.1348 55.493 29.7915C55.493 30.284 55.8884 30.5527 56.2398 30.8064H56.2984L57.294 31.4034C57.9383 31.8064 58.7729 32.3139 58.7729 33.478C58.7729 35.4482 56.9719 35.7467 55.947 35.7467C55.3613 35.7318 54.717 35.687 54.0142 35.4333ZM69.6082 34.9407C69.3593 35.1945 68.8029 35.7915 67.6168 35.7915C66.4601 35.7915 65.8158 35.3885 65.5816 34.4183C65.4791 34.0601 65.4791 33.2989 65.4791 32.9109C65.4791 31.7019 65.4791 30.7318 65.4791 29.6273V29.1348H64.4834V28.8362C64.8787 28.6721 65.1277 28.5377 65.4205 28.3437C65.9623 27.881 66.3576 27.3288 66.8115 26.5079H67.1629V28.1795H69.6375V29.09H67.1629V33.0303C67.1629 34.2094 67.3533 34.8959 68.4515 34.8959C68.9346 34.8959 69.2861 34.7318 69.4911 34.5974L69.6082 34.9407ZM36.0188 28.1497C35.8578 28.1497 35.5356 28.1497 35.316 28.2094C34.9207 28.2094 34.5107 28.2691 34.2178 28.2691C33.6761 28.2691 32.8707 28.2094 32.6365 28.2094V28.6721C32.739 28.6721 33.1197 28.6124 33.3832 29.1348C33.4857 29.3288 33.5443 29.493 33.5736 29.5974C33.6321 29.7019 33.6761 29.7915 33.6761 29.8512L36.0628 35.9258L36.8095 35.7616L39.4451 29.7915C39.4451 29.7318 39.5037 29.687 39.5476 29.5974C39.6062 29.5377 39.6062 29.4333 39.7965 29.1348C39.9576 28.8362 40.2797 28.6721 40.5433 28.6721V28.2094C40.2504 28.2094 39.6062 28.2691 39.0937 28.2691C38.8448 28.2691 38.6105 28.2691 38.347 28.2094C38.1566 28.2094 37.8638 28.1497 37.6441 28.1497V28.5527C37.893 28.5527 38.1273 28.6571 38.2298 28.7467C38.2884 28.8064 38.3909 28.9407 38.3909 29.0452C38.3909 29.2094 38.3323 29.3437 38.2005 29.8064L36.7509 33.3885C36.6924 33.1945 36.5899 32.8959 36.4581 32.478L35.4624 29.7915C35.3014 29.3885 35.2721 29.2392 35.2721 29.0303C35.2721 28.9258 35.2721 28.8362 35.3746 28.7765C35.5356 28.6124 35.7699 28.5228 36.0188 28.5228V28.1198V28.1497ZM19.7952 28.4482C20.1905 28.5079 20.7323 28.4482 21.2741 28.3437C21.728 28.2392 21.9183 28.1795 22.2697 28.0452L22.4308 28.1497V28.7467C22.7822 28.4482 23.5876 28.0303 24.5686 28.0303C25.9157 28.0303 26.7503 28.687 27.0138 29.8064C27.0724 30.1049 27.1163 30.7616 27.1163 31.1795V33.3586C27.1163 34.5676 27.1749 34.9258 27.4092 35.1945C27.5117 35.2989 27.8045 35.3885 28.112 35.3885V35.7467C27.6288 35.7467 26.7649 35.687 26.2817 35.687C25.5789 35.687 24.8321 35.7467 24.4514 35.7915V35.4333C24.8029 35.3736 25.0371 35.2691 25.1982 35.1795C25.3885 34.9855 25.4471 34.5228 25.491 33.6124C25.491 33.3139 25.491 32.7616 25.491 32.2989C25.491 31.7467 25.491 31.1198 25.4325 30.5825C25.33 29.6273 24.8468 29.1646 23.895 29.1646C23.2508 29.1646 22.7969 29.3288 22.504 29.4631V33.4333C22.504 34.6422 22.5626 35.0004 22.7969 35.2691C22.8994 35.3736 23.1922 35.4631 23.4997 35.4631V35.8213C22.8554 35.6571 22.1087 35.6571 21.6108 35.6571C20.6152 35.6571 20.3223 35.6571 19.7806 35.7616V35.4034C20.0734 35.4034 20.4248 35.2989 20.5859 35.1049C20.7762 34.8512 20.8348 34.1945 20.8348 32.9258V30.7915C20.8348 29.881 20.8348 29.478 20.6737 29.284C20.5712 29.1198 20.3223 28.9855 19.8391 29.0303V28.4631H19.7952V28.4482ZM43.9257 35.7915C41.7 35.7915 40.4847 34.478 40.4847 32.09C40.4847 31.687 40.5872 27.9855 43.9549 27.9855C44.9506 27.9855 45.8438 28.3885 46.2391 29.1049C46.693 29.8213 46.7223 30.5228 46.7223 31.1348V31.5974H42.11C42.11 32.0004 42.1686 32.3139 42.2125 32.5527C42.4614 34.0303 43.2521 34.7318 44.6578 34.7318C45.4631 34.7318 45.9463 34.5676 46.4002 34.2691L46.5905 34.6273C46.122 35.2989 45.1263 35.7915 43.9257 35.7915ZM42.1393 30.7318H45.0092C45.0092 29.8213 44.8481 28.8064 43.5596 28.8064C42.4321 28.8661 42.1979 29.9556 42.1393 30.7318Z" fill="#8C1515"/>
</g>
<defs>
<clipPath id="clip0_580_1701">
<rect width="88" height="40" fill="white"/>
</clipPath>
</defs>
</svg>
