<svg width="111" height="20" viewBox="0 0 111 20" fill="none" xmlns="http://www.w3.org/2000/svg">
<g clip-path="url(#clip0_580_1801)">
<rect width="111" height="20" fill="white"/>
<path d="M98.2704 0.52832H96.4606C96.351 0.52832 96.26 0.622399 96.26 0.735939V9.48844C96.26 12.5412 95.0955 14.0237 92.6935 14.0237C90.3204 14.0237 89.1677 12.5412 89.1677 9.48844V0.735939C89.1677 0.622399 89.0774 0.52832 88.9677 0.52832H87.158C87.0483 0.52832 86.9573 0.622399 86.9573 0.735939V9.38144C86.9573 13.8161 88.9395 16.1615 92.6907 16.1615C96.4702 16.1615 98.4648 13.8161 98.4648 9.38144V0.735939C98.4675 0.622399 98.38 0.52832 98.2704 0.52832Z" fill="black"/>
<path d="M105.7 3.68555C104.288 3.68555 103.079 4.23704 102.196 5.28163L102.03 3.99373C102.017 3.88993 101.933 3.81531 101.832 3.81531H100.355C100.245 3.81531 100.154 3.90939 100.154 4.02293V19.3123C100.154 19.4258 100.245 19.5199 100.355 19.5199H102.061C102.171 19.5199 102.262 19.4258 102.262 19.3123V13.9466C103.048 14.8516 104.263 15.348 105.703 15.348C108.822 15.348 111.001 12.9506 111.001 9.51513C110.998 5.97262 108.919 3.68555 105.7 3.68555ZM108.85 9.51842C108.85 11.8184 107.516 13.3626 105.534 13.3626C103.561 13.3626 102.236 11.799 102.236 9.47299C102.236 7.23456 103.593 5.67093 105.534 5.67093C107.519 5.67093 108.85 7.21835 108.85 9.51842Z" fill="black"/>
<path d="M41.2504 2.19864C43.3859 2.19864 44.9077 3.36002 45.4274 5.38757C45.4494 5.4784 45.5308 5.54004 45.6216 5.54004H47.4314C47.4909 5.54004 47.5473 5.51408 47.5849 5.46543C47.6225 5.42 47.6381 5.35837 47.6288 5.29673C47.0683 2.06888 44.6572 0.060791 41.3349 0.060791C37.0577 0.060791 34.1863 3.23025 34.1863 7.94389C34.1863 12.7322 36.9919 15.8237 41.3349 15.8237C44.6447 15.8237 47.0495 13.8189 47.6068 10.5878C47.6162 10.5262 47.6006 10.4645 47.563 10.4191C47.5254 10.3737 47.469 10.3445 47.4095 10.3445H45.5997C45.5089 10.3445 45.4306 10.4094 45.4056 10.497C44.8857 12.5213 43.3734 13.6827 41.2504 13.6827C38.3696 13.6827 36.4346 11.3761 36.4346 7.94068C36.4346 4.50518 38.3728 2.19864 41.2504 2.19864Z" fill="black"/>
<path d="M50.3045 0.0419922C49.5624 0.0419922 49.0019 0.622683 49.0019 1.39153C49.0019 2.16038 49.5624 2.74107 50.3045 2.74107C51.0466 2.74107 51.6071 2.16038 51.6071 1.39153C51.6071 0.622683 51.0466 0.0419922 50.3045 0.0419922Z" fill="black"/>
<path d="M51.1539 4.28809H49.4474C49.3378 4.28809 49.247 4.38216 49.247 4.49571V15.4899C49.247 15.6034 49.3378 15.6975 49.4474 15.6975H51.1539C51.2636 15.6975 51.3544 15.6034 51.3544 15.4899V4.49246C51.3544 4.37892 51.2636 4.28809 51.1539 4.28809Z" fill="black"/>
<path d="M58.8813 4.2884H58.4023C56.6018 4.2884 55.7814 5.00534 55.3243 5.6055L55.1677 4.46358C55.152 4.36301 55.0675 4.28516 54.9704 4.28516H53.4925C53.3829 4.28516 53.2921 4.37923 53.2921 4.49278V15.4869C53.2921 15.6005 53.3829 15.6946 53.4925 15.6946H55.199C55.3086 15.6946 55.3994 15.6005 55.3994 15.4869V9.88443C55.3994 8.59328 55.7407 6.42625 58.0296 6.42625H58.8813C58.9909 6.42625 59.0817 6.33217 59.0817 6.21863V4.49278C59.0817 4.37923 58.994 4.2884 58.8813 4.2884Z" fill="black"/>
<path d="M64.6161 6.14334C66.0032 6.14334 67.0616 6.96733 67.3779 8.29089C67.3998 8.38497 67.478 8.44989 67.572 8.44989H69.3005C69.3598 8.44989 69.4163 8.42389 69.4536 8.37525C69.4915 8.32982 69.5073 8.26818 69.4977 8.20654C69.053 5.6697 67.2526 4.15796 64.6819 4.15796C61.4379 4.15796 59.2585 6.49369 59.2585 9.96811C59.2585 13.4685 61.4128 15.8237 64.6192 15.8237C67.2087 15.8237 69.0344 14.2925 69.4977 11.7329C69.5101 11.6713 69.4942 11.6096 69.4536 11.561C69.4129 11.5123 69.3598 11.4863 69.3005 11.4863H67.5939C67.5 11.4863 67.4185 11.5545 67.3998 11.6485C67.1023 13.0175 66.0658 13.8383 64.6192 13.8383C62.6966 13.8383 61.4065 12.2844 61.4065 9.97132C61.4034 7.68104 62.6966 6.14334 64.6161 6.14334Z" fill="black"/>
<path d="M72.9752 0.554688H71.2688C71.1592 0.554688 71.0682 0.648766 71.0682 0.762311V15.4872C71.0682 15.6007 71.1592 15.6948 71.2688 15.6948H72.9752C73.0848 15.6948 73.1758 15.6007 73.1758 15.4872V0.762311C73.1758 0.648766 73.0848 0.554688 72.9752 0.554688Z" fill="black"/>
<path d="M79.5589 4.15796C76.4281 4.15796 74.324 6.50342 74.324 9.99082C74.324 13.4782 76.5185 15.8237 79.7878 15.8237C82.2553 15.8237 84.1464 14.26 84.6035 11.84C84.6159 11.7783 84.6008 11.7167 84.5629 11.668C84.5256 11.6193 84.4691 11.5934 84.4098 11.5934H82.6814C82.5904 11.5934 82.5118 11.6583 82.487 11.7491C82.1615 13.0565 81.106 13.835 79.6623 13.835C77.8277 13.835 76.6005 12.5471 76.5157 10.5488L84.5539 10.539C84.6539 10.539 84.7449 10.4483 84.7538 10.3347C84.7724 10.0816 84.7945 9.81889 84.7945 9.57232C84.7104 6.28283 82.6559 4.15796 79.5589 4.15796ZM82.5993 8.66397H76.6439C76.888 7.18789 78.1097 6.12387 79.5782 6.12387C81.2218 6.12387 82.3711 7.09385 82.5993 8.66397Z" fill="black"/>
<path fill-rule="evenodd" clip-rule="evenodd" d="M7.63542 0.000976562C3.42483 0.000976562 0 3.55 0 7.91328C0 12.2766 3.42483 15.8223 7.63542 15.8223C11.846 15.8223 15.2709 12.2733 15.2709 7.91006C15.2709 3.54675 11.8429 0.000976562 7.63542 0.000976562Z" fill="black"/>
<path fill-rule="evenodd" clip-rule="evenodd" d="M30.5395 8.40557L23.9548 0.273926C23.6597 -0.0896979 23.1162 -0.0929157 22.8212 0.273926L16.2209 8.40557C16.019 8.65336 16.1898 9.02986 16.5035 9.02986H18.1342C18.4138 9.02986 18.6094 8.85286 18.6995 8.74022L21.9018 4.94311C22.0322 4.78866 22.2776 4.88519 22.2776 5.08792V15.3949C22.2776 15.662 22.4857 15.8776 22.7435 15.8776H24.0169C24.2747 15.8776 24.4829 15.662 24.4829 15.3949V5.07505C24.4829 4.8691 24.7282 4.77256 24.8587 4.93024L28.0733 8.75957C28.1665 8.87221 28.3436 9.03307 28.6977 9.03307H30.2569C30.5706 9.03307 30.7414 8.65336 30.5395 8.40557Z" fill="black"/>
</g>
<defs>
<clipPath id="clip0_580_1801">
<rect width="111" height="20" fill="white"/>
</clipPath>
</defs>
</svg>
