<svg width="86" height="30" viewBox="0 0 86 30" fill="none" xmlns="http://www.w3.org/2000/svg">
<path d="M83.9256 10.0139C83.2016 9.06694 82.2738 8.30058 81.2132 7.77338C80.1526 7.24618 78.9872 6.9721 77.8062 6.9721C76.6251 6.9721 75.4597 7.24618 74.3991 7.77338C73.3385 8.30058 72.4107 9.06694 71.6867 10.0139C70.7164 11.4187 70.2074 13.0984 70.2323 14.8139C70.2074 16.5293 70.7164 18.209 71.6867 19.6138C72.4107 20.5608 73.3385 21.3271 74.3991 21.8543C75.4597 22.3815 76.6251 22.6556 77.8062 22.6556C78.9872 22.6556 80.1526 22.3815 81.2132 21.8543C82.2738 21.3271 83.2016 20.5608 83.9256 19.6138C84.8956 18.2088 85.4045 16.5292 85.3801 14.8139C85.4045 13.0985 84.8956 11.4189 83.9256 10.0139ZM81.5015 16.6139C80.9457 18.2999 79.6272 19.6138 77.8003 19.6558C75.9733 19.6978 74.6548 18.2999 74.1049 16.6139C73.7117 15.447 73.7117 14.1807 74.1049 13.0139C74.6607 11.3279 75.9792 10.0139 77.8003 9.97185C79.6213 9.92985 80.9457 11.3279 81.5015 13.0139C81.893 14.1789 81.893 15.4428 81.5015 16.6079V16.6139ZM25.7762 22.2539C25.7762 22.3716 25.7301 22.4845 25.648 22.5678C25.566 22.6511 25.4547 22.6979 25.3386 22.6979H22.7963C22.6802 22.6979 22.5689 22.6511 22.4869 22.5678C22.4048 22.4845 22.3587 22.3716 22.3587 22.2539V1.04385C22.3587 0.926097 22.4048 0.813164 22.4869 0.729898C22.5689 0.646632 22.6802 0.599854 22.7963 0.599854H25.3386C25.4547 0.599854 25.566 0.646632 25.648 0.729898C25.7301 0.813164 25.7762 0.926097 25.7762 1.04385V22.2539ZM19.8045 22.2539C19.8045 22.3716 19.7584 22.4845 19.6764 22.5678C19.5943 22.6511 19.483 22.6979 19.367 22.6979H16.8246C16.7086 22.6979 16.5973 22.6511 16.5153 22.5678C16.4332 22.4845 16.3871 22.3716 16.3871 22.2539V1.04385C16.3871 0.92713 16.4324 0.815096 16.5132 0.732C16.5939 0.648905 16.7037 0.601431 16.8187 0.599854H19.3611C19.4771 0.599854 19.5884 0.646632 19.6705 0.729898C19.7525 0.813164 19.7986 0.926097 19.7986 1.04385V22.2539H19.8045ZM69.6587 7.85385V9.65385C69.669 9.73154 69.6599 9.8106 69.6322 9.88378C69.6045 9.95696 69.5592 10.0219 69.5003 10.0727C69.4415 10.1235 69.371 10.1584 69.2954 10.1743C69.2197 10.1903 69.1414 10.1867 69.0675 10.1639C66.194 9.56385 64.4262 10.8599 64.4262 13.5539V22.2539C64.4262 22.3716 64.3801 22.4845 64.298 22.5678C64.216 22.6511 64.1047 22.6979 63.9887 22.6979H61.4463C61.3302 22.6979 61.219 22.6511 61.1369 22.5678C61.0548 22.4845 61.0088 22.3716 61.0088 22.2539V13.3679C60.9935 12.5273 61.1525 11.6929 61.4753 10.9188C61.7982 10.1446 62.2778 9.44788 62.883 8.87385C64.1259 7.64073 65.798 6.95508 67.5362 6.96585C68.1312 6.96747 68.7249 7.0237 69.3099 7.13385C69.6114 7.23585 69.6587 7.41585 69.6587 7.87785V7.85385ZM58.7738 14.8079C58.806 13.0914 58.2964 11.4094 57.3194 10.0079C56.5954 9.06094 55.6676 8.29458 54.607 7.76738C53.5463 7.24018 52.3809 6.9661 51.1999 6.9661C50.0189 6.9661 48.8535 7.24018 47.7929 7.76738C46.7322 8.29458 45.8045 9.06094 45.0805 10.0079C44.1196 11.4186 43.6049 13.0929 43.6049 14.8079C43.6049 16.5228 44.1196 18.1971 45.0805 19.6079C45.7928 20.5676 46.7182 21.3433 47.7815 21.8719C48.8448 22.4004 50.016 22.667 51.1999 22.6499C52.7506 22.655 54.2676 22.1913 55.5574 21.3179V23.2139C55.5574 25.7878 53.3402 26.2558 51.9212 26.3458C50.9448 26.3786 49.9675 26.3244 49.0005 26.1838C48.6102 26.1238 48.3383 26.1838 48.3383 26.6098V28.8899C48.3405 28.9411 48.3527 28.9914 48.3742 29.0378C48.3956 29.0842 48.4259 29.1259 48.4633 29.1605C48.5006 29.195 48.5443 29.2218 48.5918 29.2392C48.6394 29.2566 48.6898 29.2643 48.7403 29.2618C52.0336 29.5498 54.2508 29.4898 55.9181 28.5238C57.0862 27.8229 57.9532 26.7033 58.3481 25.3859C58.6431 24.3693 58.7846 23.3134 58.7679 22.2539V14.8079H58.7738ZM51.1999 19.6439C49.373 19.6439 48.0545 18.2879 47.4987 16.6019C47.1054 15.435 47.1054 14.1687 47.4987 13.0019C48.0545 11.3159 49.373 9.95985 51.1999 9.95985C55.2854 9.95985 55.4214 14.1899 55.4214 14.8019C55.4214 15.4139 55.2854 19.6439 51.1999 19.6439ZM14.0576 13.2539C14.0576 11.2079 13.6082 9.65385 12.6386 8.57985C11.6689 7.50585 9.7178 6.97185 7.90858 6.97185C6.09252 6.96464 4.30717 7.44709 2.73514 8.36985C2.68593 8.39938 2.64527 8.44155 2.61724 8.49212C2.58921 8.54268 2.57482 8.59984 2.5755 8.65785L2.71149 10.9139C2.72357 10.984 2.75381 11.0497 2.79912 11.1041C2.84443 11.1585 2.90317 11.1998 2.96934 11.2236C3.03551 11.2474 3.10673 11.2529 3.1757 11.2396C3.24467 11.2263 3.30892 11.1946 3.36186 11.1479C5.57905 9.76185 8.23968 9.50385 9.59364 10.1999C9.96614 10.4177 10.2731 10.7345 10.4814 11.1161C10.6898 11.4978 10.7917 11.9298 10.7761 12.3659V12.6959H7.08083C5.49036 12.6959 0.618463 13.2959 0.618463 17.8379V17.8859C0.580552 18.577 0.703736 19.2675 0.978018 19.9014C1.2523 20.5352 1.66996 21.0945 2.1971 21.5338C3.34856 22.357 4.74044 22.7609 6.14665 22.6798H13.626C13.742 22.6798 13.8533 22.6331 13.9353 22.5498C14.0174 22.4665 14.0635 22.3536 14.0635 22.2359V13.2359L14.0576 13.2539ZM10.7761 19.9079H6.3595C5.79282 19.8914 5.24525 19.6963 4.79269 19.3498C4.5599 19.184 4.37078 18.9626 4.24192 18.7053C4.11306 18.448 4.04841 18.1625 4.05363 17.8739C4.05363 17.0639 4.59166 15.4439 7.28185 15.4439H10.7761V19.9079ZM35.1356 6.97185C30.6126 6.97185 28.6319 10.0499 27.9993 12.6539C27.8253 13.3562 27.7379 14.0777 27.7391 14.8019C27.7147 16.5172 28.2236 18.1968 29.1936 19.6018C29.9184 20.5478 30.8464 21.3135 31.9068 21.8406C32.9672 22.3678 34.1322 22.6425 35.313 22.6439C37.7549 22.7339 39.3867 22.3139 40.6343 21.5939C40.7559 21.5142 40.8499 21.3978 40.9029 21.2611C40.956 21.1244 40.9654 20.9743 40.9299 20.8319V18.8339C40.9299 18.4258 40.6875 18.2339 40.3386 18.4799C38.8784 19.4295 37.1455 19.8523 35.4194 19.6798C34.4365 19.6667 33.4922 19.2891 32.7647 18.6182C32.0372 17.9473 31.5766 17.0295 31.4699 16.0379H41.5211C41.6299 16.0379 41.7343 15.9944 41.8117 15.917C41.8892 15.8395 41.9335 15.7342 41.935 15.6239C42.1124 12.8339 41.3142 6.97185 35.1356 6.97185ZM31.5231 13.2779C31.5435 12.8185 31.6536 12.3679 31.8472 11.9522C32.0407 11.5365 32.3138 11.164 32.6505 10.8563C32.9872 10.5487 33.3808 10.3121 33.8085 10.1602C34.2362 10.0084 34.6893 9.94434 35.1416 9.97185C35.5744 9.94497 36.0079 10.0124 36.4129 10.1696C36.818 10.3268 37.1852 10.5702 37.4898 10.8834C37.7945 11.1965 38.0296 11.5722 38.1794 11.9852C38.3291 12.3982 38.39 12.839 38.358 13.2779H31.5231Z" fill="#FF5A00"/>
</svg>
