<svg width="105" height="20" viewBox="0 0 105 20" fill="none" xmlns="http://www.w3.org/2000/svg">
<path d="M0.0540771 0.111084H7.74421C9.209 0.111084 10.3076 0.485797 11.1214 1.11032C12.0165 1.85975 12.5048 2.94225 12.5048 4.27456C12.5048 5.81505 11.8944 6.77265 10.6738 7.35554V7.43881C12.3013 7.98006 13.2372 9.47892 13.2372 11.2692C13.2372 12.9762 12.5862 14.3086 11.5282 15.1412C10.6331 15.8074 9.49382 16.0989 7.94766 16.0989H0.0540771V0.111084ZM6.97113 6.35631C7.7849 6.35631 8.39523 5.89832 8.39523 4.94072C8.39523 4.02476 7.7849 3.56677 6.93044 3.56677H4.28569V6.31467H6.97113V6.35631ZM7.33733 12.5599C8.27316 12.5599 8.96487 11.977 8.96487 10.9361C8.96487 9.81199 8.23248 9.31238 7.33733 9.31238H4.32637V12.6015H7.33733V12.5599ZM13.9289 0.111084H17.957V16.1405H13.9289V0.111084ZM18.7708 10.4365C18.7708 6.81429 21.0494 4.39947 24.5893 4.39947C28.1292 4.39947 30.367 6.85592 30.367 10.4365C30.367 14.0587 28.1292 16.4736 24.5893 16.4736C21.0494 16.4736 18.7708 14.0587 18.7708 10.4365ZM26.3389 10.4365C26.3389 8.43804 25.7285 7.189 24.5079 7.189C23.2872 7.189 22.7176 8.43804 22.7176 10.4365C22.7176 12.435 23.2872 13.7257 24.5079 13.7257C25.7285 13.684 26.3389 12.435 26.3389 10.4365ZM30.8146 10.4365C30.8146 6.81429 33.0932 4.39947 36.6331 4.39947C40.173 4.39947 42.3702 6.81429 42.3702 10.4365C42.3702 14.0587 40.1323 16.4736 36.5924 16.4736C33.0932 16.4736 30.8146 14.0587 30.8146 10.4365ZM38.3827 10.4365C38.3827 8.43804 37.7724 7.189 36.5517 7.189C35.331 7.189 34.7614 8.43804 34.7614 10.4365C34.7614 12.435 35.331 13.7257 36.5517 13.7257C37.7724 13.684 38.3827 12.435 38.3827 10.4365ZM43.1839 4.69091H46.9273V6.39794H47.0087C47.7411 5.06563 48.7583 4.35783 50.3858 4.35783C51.8099 4.35783 52.8678 5.06563 53.3968 6.31467H53.4781C54.3733 4.81582 55.5533 4.35783 56.9367 4.35783C59.5407 4.35783 60.6393 6.31467 60.6393 8.93766V16.0989H56.7332V9.64545C56.7332 8.47968 56.367 7.73025 55.3905 7.73025C54.414 7.73025 53.9257 8.64622 53.9257 9.89526V16.0989H50.0196V9.64545C50.0196 8.47968 49.6534 7.73025 48.6769 7.73025C47.7004 7.73025 47.2121 8.64622 47.2121 9.89526V16.0989H43.1839V4.69091ZM65.5626 14.6H65.5219V16.0989H61.7786V0.111084H65.6847V5.85669H65.7661C66.4985 4.85745 67.5157 4.3162 68.9398 4.3162C71.7473 4.3162 73.3748 6.89756 73.3748 10.3532C73.3748 14.2253 71.6252 16.4736 68.6957 16.4736C67.475 16.4736 66.2137 15.8907 65.5626 14.6ZM69.3467 10.3116C69.3467 8.47968 68.6957 7.27227 67.5157 7.27227C66.295 7.27227 65.5626 8.47968 65.5626 10.3116C65.5626 12.1435 66.3357 13.351 67.5157 13.351C68.6957 13.351 69.3467 12.1852 69.3467 10.3116ZM73.8224 10.3949C73.8224 6.81429 76.1417 4.35783 79.4781 4.35783C81.1464 4.35783 82.4077 4.89909 83.3842 5.85669C84.6863 7.14737 85.2559 9.14584 85.2152 11.4774H77.7285C77.8913 12.893 78.5423 13.6424 79.7223 13.6424C80.414 13.6424 81.0243 13.3093 81.2684 12.5599H85.0525C84.4014 15.1829 82.4077 16.4736 79.6002 16.4736C76.1417 16.4319 73.8224 14.0171 73.8224 10.3949ZM77.7285 9.18747H81.3091C81.2277 7.81352 80.4953 7.10573 79.5595 7.10573C78.4609 7.0641 77.8506 7.85516 77.7285 9.18747ZM89.6503 6.64775H89.7316C90.5454 5.06563 91.6033 4.4411 92.946 4.4411C93.2715 4.4411 93.475 4.48274 93.597 4.56601V8.06333H93.5157C91.1964 7.64698 89.8537 8.77112 89.8537 11.3525V16.1405H85.9069V4.69091H89.6503V6.64775ZM94.0039 16.1405H97.788C97.9507 16.6401 98.439 17.0981 99.3748 17.0981C100.636 17.0981 101.084 16.307 101.084 15.0996V14.2669H101.002C100.392 15.0163 99.5376 15.5576 98.3169 15.5576C95.9163 15.5576 93.8005 13.7257 93.8005 10.1451C93.8005 6.85592 95.5094 4.3162 98.1135 4.3162C99.6189 4.3162 100.514 4.94072 101.124 5.89832H101.206V4.64928H104.949V14.5584C104.949 16.3903 104.339 17.8059 103.403 18.6386C102.426 19.5129 101.043 19.8876 99.4562 19.8876C96.4452 19.9293 94.3701 18.6802 94.0039 16.1405ZM101.246 9.97853C101.246 8.56295 100.595 7.39718 99.4562 7.39718C98.3576 7.39718 97.6659 8.39641 97.6659 9.97853C97.6659 11.519 98.3576 12.6015 99.4562 12.6015C100.555 12.6015 101.246 11.4774 101.246 9.97853Z" fill="black"/>
</svg>
