<svg width="122" height="20" viewBox="0 0 122 20" fill="none" xmlns="http://www.w3.org/2000/svg">
<path d="M76.6404 6.27519H78.6346V6.31441L75.9561 19.7066H74.0205V19.6673L74.2747 18.2752C73.3167 19.334 72.0067 19.8634 70.3644 19.8634C68.1356 19.8634 66.6301 18.334 66.6301 16.0595C66.6301 15.5889 66.6888 15.236 66.767 14.8438L66.7865 14.7262L68.4875 6.27519H70.4426V6.31441L68.7808 14.5497C68.7026 15.0007 68.6439 15.4517 68.6439 15.785C68.6439 17.236 69.5433 18.1183 71.0683 18.1183C71.5962 18.1183 74.2942 17.9419 74.9981 14.4713L76.6404 6.27519ZM88.4103 6.09872C86.8853 6.09872 85.5558 6.70656 84.6955 7.8046L85.0083 6.2948V6.25558H83.0728L80.3942 19.6477V19.687H82.3689L84.0112 11.4713C84.4218 9.37323 86.0641 7.84382 87.8824 7.84382C88.6644 7.84382 89.2901 8.15754 89.7593 8.78499L89.7788 8.8046L91.382 7.37323L91.3625 7.35362C90.6 6.51049 89.642 6.09872 88.4103 6.09872ZM55.916 7.96147V8.00068H62.6221L53.6872 18.0399L53.3548 19.687H62.8763L63.2087 17.9419H56.092L65.0465 7.90264L65.3788 6.25558H56.2484L55.916 7.96147ZM91.5971 19.6477V19.687H93.5522L96.2308 6.27519H94.2952L91.5971 19.6477ZM118.246 6.09872C116.623 6.09872 115.371 6.58891 114.394 7.60852L115.919 0.137939H113.944L109.995 19.687H111.95L113.592 11.4713C114.296 8.00068 117.014 7.82421 117.542 7.82421C119.047 7.82421 119.946 8.68695 119.946 10.1575C119.946 10.4909 119.888 10.9419 119.81 11.3928L118.148 19.6673H120.103L121.823 11.2164C121.902 10.7654 121.96 10.3928 121.96 9.88303C121.98 7.62813 120.474 6.09872 118.246 6.09872ZM105.224 6.09872C101.666 6.09872 99.1635 8.58892 98.3619 12.9615C98.225 13.687 98.1663 14.5105 98.1663 15.0203C98.1663 18.0007 99.9846 19.8438 102.917 19.8438C104.618 19.8438 106.163 19.1968 107.414 17.9615L107.434 17.9419L106.3 16.5693L106.28 16.5497L106.261 16.5693C105.224 17.6673 104.286 18.0987 103.035 18.0987C101.646 18.0987 100.141 17.2752 100.141 14.9615C100.141 14.236 100.219 13.6281 100.356 12.9615C100.571 11.8242 101.04 10.236 102.096 9.13794C102.937 8.27519 103.934 7.84382 105.048 7.84382C106.221 7.84382 106.964 8.25558 107.668 9.31441L107.688 9.33402L109.135 8.11833L109.154 8.09872L109.135 8.07912C108.118 6.70657 106.925 6.09872 105.224 6.09872ZM95.0381 2.58892H97.0128L97.5016 0.137939H95.5465L95.0381 2.58892ZM75.9365 2.58892H77.9112L78.4 0.137939H76.4449L75.9365 2.58892ZM70.6968 2.58892H72.6715L73.1603 0.137939H71.2051L70.6968 2.58892ZM44.4394 7.70656H40.0208L41.5654 0.137939H4.00737L0.0580139 19.687H15.0343L16.0119 14.8046H7.17468L7.70257 12.1183H16.5397L17.4391 7.72617H8.60192L9.12981 5.0399H23.1481L20.1958 19.7066H26.3349L29.2872 5.0399H34.4487L31.4965 19.7066H37.6356L39.141 12.1379H43.5596L42.0346 19.7066H48.1737L52.1231 0.157543H45.984L44.4394 7.70656Z" fill="#17181A"/>
</svg>
